<?xml version="1.0" encoding="utf-8" standalone="no"?>
<!DOCTYPE svg PUBLIC "-//W3C//DTD SVG 1.1//EN"
  "http://www.w3.org/Graphics/SVG/1.1/DTD/svg11.dtd">
<!-- Created with matplotlib (https://matplotlib.org/) -->
<svg height="345.6pt" version="1.1" viewBox="0 0 460.8 345.6" width="460.8pt" xmlns="http://www.w3.org/2000/svg" xmlns:xlink="http://www.w3.org/1999/xlink">
 <metadata>
  <rdf:RDF xmlns:cc="http://creativecommons.org/ns#" xmlns:dc="http://purl.org/dc/elements/1.1/" xmlns:rdf="http://www.w3.org/1999/02/22-rdf-syntax-ns#">
   <cc:Work>
    <dc:type rdf:resource="http://purl.org/dc/dcmitype/StillImage"/>
    <dc:date>2022-05-03T09:54:59.814260</dc:date>
    <dc:format>image/svg+xml</dc:format>
    <dc:creator>
     <cc:Agent>
      <dc:title>Matplotlib v3.3.4, https://matplotlib.org/</dc:title>
     </cc:Agent>
    </dc:creator>
   </cc:Work>
  </rdf:RDF>
 </metadata>
 <defs>
  <style type="text/css">*{stroke-linecap:butt;stroke-linejoin:round;}</style>
 </defs>
 <g id="figure_1">
  <g id="patch_1">
   <path d="M 0 345.6 
L 460.8 345.6 
L 460.8 0 
L 0 0 
z
" style="fill:#ffffff;"/>
  </g>
  <g id="axes_1">
   <g id="patch_2">
    <path d="M 57.6 307.584 
L 414.72 307.584 
L 414.72 41.472 
L 57.6 41.472 
z
" style="fill:#ffffff;"/>
   </g>
   <g id="matplotlib.axis_1">
    <g id="xtick_1">
     <g id="line2d_1">
      <path clip-path="url(#p77d5eb8980)" d="M 73.832727 307.584 
L 73.832727 41.472 
" style="fill:none;stroke:#b0b0b0;stroke-linecap:square;stroke-width:0.8;"/>
     </g>
     <g id="line2d_2">
      <defs>
       <path d="M 0 0 
L 0 3.5 
" id="mee3e0192f1" style="stroke:#000000;stroke-width:0.8;"/>
      </defs>
      <g>
       <use style="stroke:#000000;stroke-width:0.8;" x="73.832727" xlink:href="#mee3e0192f1" y="307.584"/>
      </g>
     </g>
     <g id="text_1">
      <!-- 0 -->
      <g transform="translate(70.651477 322.182437)scale(0.1 -0.1)">
       <defs>
        <path d="M 31.78125 66.40625 
Q 24.171875 66.40625 20.328125 58.90625 
Q 16.5 51.421875 16.5 36.375 
Q 16.5 21.390625 20.328125 13.890625 
Q 24.171875 6.390625 31.78125 6.390625 
Q 39.453125 6.390625 43.28125 13.890625 
Q 47.125 21.390625 47.125 36.375 
Q 47.125 51.421875 43.28125 58.90625 
Q 39.453125 66.40625 31.78125 66.40625 
z
M 31.78125 74.21875 
Q 44.046875 74.21875 50.515625 64.515625 
Q 56.984375 54.828125 56.984375 36.375 
Q 56.984375 17.96875 50.515625 8.265625 
Q 44.046875 -1.421875 31.78125 -1.421875 
Q 19.53125 -1.421875 13.0625 8.265625 
Q 6.59375 17.96875 6.59375 36.375 
Q 6.59375 54.828125 13.0625 64.515625 
Q 19.53125 74.21875 31.78125 74.21875 
z
" id="DejaVuSans-48"/>
       </defs>
       <use xlink:href="#DejaVuSans-48"/>
      </g>
     </g>
    </g>
    <g id="xtick_2">
     <g id="line2d_3">
      <path clip-path="url(#p77d5eb8980)" d="M 141.752088 307.584 
L 141.752088 41.472 
" style="fill:none;stroke:#b0b0b0;stroke-linecap:square;stroke-width:0.8;"/>
     </g>
     <g id="line2d_4">
      <g>
       <use style="stroke:#000000;stroke-width:0.8;" x="141.752088" xlink:href="#mee3e0192f1" y="307.584"/>
      </g>
     </g>
     <g id="text_2">
      <!-- 50 -->
      <g transform="translate(135.389588 322.182437)scale(0.1 -0.1)">
       <defs>
        <path d="M 10.796875 72.90625 
L 49.515625 72.90625 
L 49.515625 64.59375 
L 19.828125 64.59375 
L 19.828125 46.734375 
Q 21.96875 47.46875 24.109375 47.828125 
Q 26.265625 48.1875 28.421875 48.1875 
Q 40.625 48.1875 47.75 41.5 
Q 54.890625 34.8125 54.890625 23.390625 
Q 54.890625 11.625 47.5625 5.09375 
Q 40.234375 -1.421875 26.90625 -1.421875 
Q 22.3125 -1.421875 17.546875 -0.640625 
Q 12.796875 0.140625 7.71875 1.703125 
L 7.71875 11.625 
Q 12.109375 9.234375 16.796875 8.0625 
Q 21.484375 6.890625 26.703125 6.890625 
Q 35.15625 6.890625 40.078125 11.328125 
Q 45.015625 15.765625 45.015625 23.390625 
Q 45.015625 31 40.078125 35.4375 
Q 35.15625 39.890625 26.703125 39.890625 
Q 22.75 39.890625 18.8125 39.015625 
Q 14.890625 38.140625 10.796875 36.28125 
z
" id="DejaVuSans-53"/>
       </defs>
       <use xlink:href="#DejaVuSans-53"/>
       <use x="63.623047" xlink:href="#DejaVuSans-48"/>
      </g>
     </g>
    </g>
    <g id="xtick_3">
     <g id="line2d_5">
      <path clip-path="url(#p77d5eb8980)" d="M 209.671449 307.584 
L 209.671449 41.472 
" style="fill:none;stroke:#b0b0b0;stroke-linecap:square;stroke-width:0.8;"/>
     </g>
     <g id="line2d_6">
      <g>
       <use style="stroke:#000000;stroke-width:0.8;" x="209.671449" xlink:href="#mee3e0192f1" y="307.584"/>
      </g>
     </g>
     <g id="text_3">
      <!-- 100 -->
      <g transform="translate(200.127699 322.182437)scale(0.1 -0.1)">
       <defs>
        <path d="M 12.40625 8.296875 
L 28.515625 8.296875 
L 28.515625 63.921875 
L 10.984375 60.40625 
L 10.984375 69.390625 
L 28.421875 72.90625 
L 38.28125 72.90625 
L 38.28125 8.296875 
L 54.390625 8.296875 
L 54.390625 0 
L 12.40625 0 
z
" id="DejaVuSans-49"/>
       </defs>
       <use xlink:href="#DejaVuSans-49"/>
       <use x="63.623047" xlink:href="#DejaVuSans-48"/>
       <use x="127.246094" xlink:href="#DejaVuSans-48"/>
      </g>
     </g>
    </g>
    <g id="xtick_4">
     <g id="line2d_7">
      <path clip-path="url(#p77d5eb8980)" d="M 277.59081 307.584 
L 277.59081 41.472 
" style="fill:none;stroke:#b0b0b0;stroke-linecap:square;stroke-width:0.8;"/>
     </g>
     <g id="line2d_8">
      <g>
       <use style="stroke:#000000;stroke-width:0.8;" x="277.59081" xlink:href="#mee3e0192f1" y="307.584"/>
      </g>
     </g>
     <g id="text_4">
      <!-- 150 -->
      <g transform="translate(268.04706 322.182437)scale(0.1 -0.1)">
       <use xlink:href="#DejaVuSans-49"/>
       <use x="63.623047" xlink:href="#DejaVuSans-53"/>
       <use x="127.246094" xlink:href="#DejaVuSans-48"/>
      </g>
     </g>
    </g>
    <g id="xtick_5">
     <g id="line2d_9">
      <path clip-path="url(#p77d5eb8980)" d="M 345.510171 307.584 
L 345.510171 41.472 
" style="fill:none;stroke:#b0b0b0;stroke-linecap:square;stroke-width:0.8;"/>
     </g>
     <g id="line2d_10">
      <g>
       <use style="stroke:#000000;stroke-width:0.8;" x="345.510171" xlink:href="#mee3e0192f1" y="307.584"/>
      </g>
     </g>
     <g id="text_5">
      <!-- 200 -->
      <g transform="translate(335.966421 322.182437)scale(0.1 -0.1)">
       <defs>
        <path d="M 19.1875 8.296875 
L 53.609375 8.296875 
L 53.609375 0 
L 7.328125 0 
L 7.328125 8.296875 
Q 12.9375 14.109375 22.625 23.890625 
Q 32.328125 33.6875 34.8125 36.53125 
Q 39.546875 41.84375 41.421875 45.53125 
Q 43.3125 49.21875 43.3125 52.78125 
Q 43.3125 58.59375 39.234375 62.25 
Q 35.15625 65.921875 28.609375 65.921875 
Q 23.96875 65.921875 18.8125 64.3125 
Q 13.671875 62.703125 7.8125 59.421875 
L 7.8125 69.390625 
Q 13.765625 71.78125 18.9375 73 
Q 24.125 74.21875 28.421875 74.21875 
Q 39.75 74.21875 46.484375 68.546875 
Q 53.21875 62.890625 53.21875 53.421875 
Q 53.21875 48.921875 51.53125 44.890625 
Q 49.859375 40.875 45.40625 35.40625 
Q 44.1875 33.984375 37.640625 27.21875 
Q 31.109375 20.453125 19.1875 8.296875 
z
" id="DejaVuSans-50"/>
       </defs>
       <use xlink:href="#DejaVuSans-50"/>
       <use x="63.623047" xlink:href="#DejaVuSans-48"/>
       <use x="127.246094" xlink:href="#DejaVuSans-48"/>
      </g>
     </g>
    </g>
    <g id="xtick_6">
     <g id="line2d_11">
      <path clip-path="url(#p77d5eb8980)" d="M 413.429532 307.584 
L 413.429532 41.472 
" style="fill:none;stroke:#b0b0b0;stroke-linecap:square;stroke-width:0.8;"/>
     </g>
     <g id="line2d_12">
      <g>
       <use style="stroke:#000000;stroke-width:0.8;" x="413.429532" xlink:href="#mee3e0192f1" y="307.584"/>
      </g>
     </g>
     <g id="text_6">
      <!-- 250 -->
      <g transform="translate(403.885782 322.182437)scale(0.1 -0.1)">
       <use xlink:href="#DejaVuSans-50"/>
       <use x="63.623047" xlink:href="#DejaVuSans-53"/>
       <use x="127.246094" xlink:href="#DejaVuSans-48"/>
      </g>
     </g>
    </g>
   </g>
   <g id="matplotlib.axis_2">
    <g id="ytick_1">
     <g id="line2d_13">
      <path clip-path="url(#p77d5eb8980)" d="M 57.6 299.421659 
L 414.72 299.421659 
" style="fill:none;stroke:#b0b0b0;stroke-linecap:square;stroke-width:0.8;"/>
     </g>
     <g id="line2d_14">
      <defs>
       <path d="M 0 0 
L -3.5 0 
" id="m9a37e2a5f5" style="stroke:#000000;stroke-width:0.8;"/>
      </defs>
      <g>
       <use style="stroke:#000000;stroke-width:0.8;" x="57.6" xlink:href="#m9a37e2a5f5" y="299.421659"/>
      </g>
     </g>
     <g id="text_7">
      <!-- 0 -->
      <g transform="translate(44.2375 303.220877)scale(0.1 -0.1)">
       <use xlink:href="#DejaVuSans-48"/>
      </g>
     </g>
    </g>
    <g id="ytick_2">
     <g id="line2d_15">
      <path clip-path="url(#p77d5eb8980)" d="M 57.6 250.250927 
L 414.72 250.250927 
" style="fill:none;stroke:#b0b0b0;stroke-linecap:square;stroke-width:0.8;"/>
     </g>
     <g id="line2d_16">
      <g>
       <use style="stroke:#000000;stroke-width:0.8;" x="57.6" xlink:href="#m9a37e2a5f5" y="250.250927"/>
      </g>
     </g>
     <g id="text_8">
      <!-- 100 -->
      <g transform="translate(31.5125 254.050146)scale(0.1 -0.1)">
       <use xlink:href="#DejaVuSans-49"/>
       <use x="63.623047" xlink:href="#DejaVuSans-48"/>
       <use x="127.246094" xlink:href="#DejaVuSans-48"/>
      </g>
     </g>
    </g>
    <g id="ytick_3">
     <g id="line2d_17">
      <path clip-path="url(#p77d5eb8980)" d="M 57.6 201.080195 
L 414.72 201.080195 
" style="fill:none;stroke:#b0b0b0;stroke-linecap:square;stroke-width:0.8;"/>
     </g>
     <g id="line2d_18">
      <g>
       <use style="stroke:#000000;stroke-width:0.8;" x="57.6" xlink:href="#m9a37e2a5f5" y="201.080195"/>
      </g>
     </g>
     <g id="text_9">
      <!-- 200 -->
      <g transform="translate(31.5125 204.879414)scale(0.1 -0.1)">
       <use xlink:href="#DejaVuSans-50"/>
       <use x="63.623047" xlink:href="#DejaVuSans-48"/>
       <use x="127.246094" xlink:href="#DejaVuSans-48"/>
      </g>
     </g>
    </g>
    <g id="ytick_4">
     <g id="line2d_19">
      <path clip-path="url(#p77d5eb8980)" d="M 57.6 151.909463 
L 414.72 151.909463 
" style="fill:none;stroke:#b0b0b0;stroke-linecap:square;stroke-width:0.8;"/>
     </g>
     <g id="line2d_20">
      <g>
       <use style="stroke:#000000;stroke-width:0.8;" x="57.6" xlink:href="#m9a37e2a5f5" y="151.909463"/>
      </g>
     </g>
     <g id="text_10">
      <!-- 300 -->
      <g transform="translate(31.5125 155.708682)scale(0.1 -0.1)">
       <defs>
        <path d="M 40.578125 39.3125 
Q 47.65625 37.796875 51.625 33 
Q 55.609375 28.21875 55.609375 21.1875 
Q 55.609375 10.40625 48.1875 4.484375 
Q 40.765625 -1.421875 27.09375 -1.421875 
Q 22.515625 -1.421875 17.65625 -0.515625 
Q 12.796875 0.390625 7.625 2.203125 
L 7.625 11.71875 
Q 11.71875 9.328125 16.59375 8.109375 
Q 21.484375 6.890625 26.8125 6.890625 
Q 36.078125 6.890625 40.9375 10.546875 
Q 45.796875 14.203125 45.796875 21.1875 
Q 45.796875 27.640625 41.28125 31.265625 
Q 36.765625 34.90625 28.71875 34.90625 
L 20.21875 34.90625 
L 20.21875 43.015625 
L 29.109375 43.015625 
Q 36.375 43.015625 40.234375 45.921875 
Q 44.09375 48.828125 44.09375 54.296875 
Q 44.09375 59.90625 40.109375 62.90625 
Q 36.140625 65.921875 28.71875 65.921875 
Q 24.65625 65.921875 20.015625 65.03125 
Q 15.375 64.15625 9.8125 62.3125 
L 9.8125 71.09375 
Q 15.4375 72.65625 20.34375 73.4375 
Q 25.25 74.21875 29.59375 74.21875 
Q 40.828125 74.21875 47.359375 69.109375 
Q 53.90625 64.015625 53.90625 55.328125 
Q 53.90625 49.265625 50.4375 45.09375 
Q 46.96875 40.921875 40.578125 39.3125 
z
" id="DejaVuSans-51"/>
       </defs>
       <use xlink:href="#DejaVuSans-51"/>
       <use x="63.623047" xlink:href="#DejaVuSans-48"/>
       <use x="127.246094" xlink:href="#DejaVuSans-48"/>
      </g>
     </g>
    </g>
    <g id="ytick_5">
     <g id="line2d_21">
      <path clip-path="url(#p77d5eb8980)" d="M 57.6 102.738732 
L 414.72 102.738732 
" style="fill:none;stroke:#b0b0b0;stroke-linecap:square;stroke-width:0.8;"/>
     </g>
     <g id="line2d_22">
      <g>
       <use style="stroke:#000000;stroke-width:0.8;" x="57.6" xlink:href="#m9a37e2a5f5" y="102.738732"/>
      </g>
     </g>
     <g id="text_11">
      <!-- 400 -->
      <g transform="translate(31.5125 106.53795)scale(0.1 -0.1)">
       <defs>
        <path d="M 37.796875 64.3125 
L 12.890625 25.390625 
L 37.796875 25.390625 
z
M 35.203125 72.90625 
L 47.609375 72.90625 
L 47.609375 25.390625 
L 58.015625 25.390625 
L 58.015625 17.1875 
L 47.609375 17.1875 
L 47.609375 0 
L 37.796875 0 
L 37.796875 17.1875 
L 4.890625 17.1875 
L 4.890625 26.703125 
z
" id="DejaVuSans-52"/>
       </defs>
       <use xlink:href="#DejaVuSans-52"/>
       <use x="63.623047" xlink:href="#DejaVuSans-48"/>
       <use x="127.246094" xlink:href="#DejaVuSans-48"/>
      </g>
     </g>
    </g>
    <g id="ytick_6">
     <g id="line2d_23">
      <path clip-path="url(#p77d5eb8980)" d="M 57.6 53.568 
L 414.72 53.568 
" style="fill:none;stroke:#b0b0b0;stroke-linecap:square;stroke-width:0.8;"/>
     </g>
     <g id="line2d_24">
      <g>
       <use style="stroke:#000000;stroke-width:0.8;" x="57.6" xlink:href="#m9a37e2a5f5" y="53.568"/>
      </g>
     </g>
     <g id="text_12">
      <!-- 500 -->
      <g transform="translate(31.5125 57.367219)scale(0.1 -0.1)">
       <use xlink:href="#DejaVuSans-53"/>
       <use x="63.623047" xlink:href="#DejaVuSans-48"/>
       <use x="127.246094" xlink:href="#DejaVuSans-48"/>
      </g>
     </g>
    </g>
   </g>
   <g id="line2d_25">
    <path clip-path="url(#p77d5eb8980)" d="M 73.832727 295.488 
L 75.191114 295.488 
L 76.549502 294.504585 
L 77.907889 295.488 
L 80.624663 294.504585 
L 81.983051 290.07922 
L 83.341438 293.029463 
L 84.699825 291.554341 
L 86.058212 294.996293 
L 87.416599 286.637268 
L 88.774987 268.444098 
L 90.133374 278.769951 
L 91.491761 275.328 
L 92.850148 276.803122 
L 94.208536 276.311415 
L 95.566923 275.328 
L 96.92531 266.968976 
L 98.283697 270.902634 
L 99.642084 238.449951 
L 101.000472 257.626537 
L 102.358859 294.504585 
L 103.717246 266.477268 
L 105.075633 292.046049 
L 106.434021 294.012878 
L 107.792408 238.449951 
L 109.150795 205.013854 
L 110.509182 252.217756 
L 111.867569 280.245073 
L 113.225957 192.229463 
L 114.584344 214.848 
L 115.942731 226.157268 
L 117.301118 244.350439 
L 118.659506 232.549463 
L 120.017893 295.488 
L 121.37628 294.996293 
L 124.093054 294.996293 
L 125.451442 295.488 
L 126.809829 294.996293 
L 128.168216 295.488 
L 129.526603 295.488 
L 130.88499 294.996293 
L 132.243378 295.488 
L 133.601765 295.488 
L 134.960152 294.996293 
L 136.318539 295.488 
L 137.676927 295.488 
L 139.035314 294.996293 
L 140.393701 295.488 
L 141.752088 295.488 
L 143.110475 294.504585 
L 144.468863 287.128976 
L 145.82725 292.537756 
L 147.185637 283.687024 
L 148.544024 284.670439 
L 149.902412 294.996293 
L 151.260799 294.996293 
L 152.619186 282.211902 
L 153.977573 283.195317 
L 155.33596 286.145561 
L 156.694348 294.012878 
L 158.052735 275.819707 
L 159.411122 294.996293 
L 160.769509 294.996293 
L 162.127897 280.73678 
L 163.486284 282.211902 
L 164.844671 277.294829 
L 166.203058 291.554341 
L 167.561445 279.753366 
L 168.919833 294.504585 
L 170.27822 294.504585 
L 171.636607 294.996293 
L 172.994994 287.128976 
L 174.353382 273.361171 
L 175.711769 294.996293 
L 177.070156 295.488 
L 178.428543 295.488 
L 179.78693 294.504585 
L 181.145318 294.996293 
L 182.503705 292.046049 
L 183.862092 295.488 
L 186.578866 295.488 
L 187.937254 294.996293 
L 189.295641 292.537756 
L 190.654028 294.996293 
L 192.012415 277.294829 
L 193.370803 239.925073 
L 194.72919 295.488 
L 196.087577 294.504585 
L 197.445964 294.996293 
L 198.804351 294.996293 
L 200.162739 295.488 
L 204.2379 295.488 
L 205.596288 287.620683 
L 206.954675 294.996293 
L 208.313062 293.521171 
L 209.671449 294.996293 
L 211.029836 290.07922 
L 212.388224 294.012878 
L 213.746611 283.687024 
L 215.104998 294.996293 
L 216.463385 295.488 
L 217.821773 294.996293 
L 220.538547 294.996293 
L 221.896934 295.488 
L 223.255321 294.504585 
L 224.613709 294.996293 
L 225.972096 294.996293 
L 227.330483 295.488 
L 228.68887 294.504585 
L 230.047258 294.504585 
L 231.405645 295.488 
L 232.764032 294.996293 
L 234.122419 294.996293 
L 235.480806 295.488 
L 236.839194 294.996293 
L 238.197581 294.996293 
L 239.555968 294.504585 
L 240.914355 295.488 
L 246.347904 295.488 
L 247.706291 294.996293 
L 249.064679 295.488 
L 250.423066 292.046049 
L 251.781453 295.488 
L 253.13984 295.488 
L 254.498227 294.996293 
L 255.856615 295.488 
L 277.59081 295.488 
L 278.949197 294.504585 
L 280.307585 295.488 
L 281.665972 294.012878 
L 283.024359 295.488 
L 284.382746 295.488 
L 285.741134 294.996293 
L 287.099521 294.996293 
L 288.457908 295.488 
L 291.174682 294.504585 
L 293.891457 295.488 
L 295.249844 295.488 
L 296.608231 294.996293 
L 300.683393 294.996293 
L 302.04178 294.504585 
L 303.400167 294.504585 
L 304.758555 294.996293 
L 306.116942 294.996293 
L 307.475329 294.504585 
L 308.833716 295.488 
L 323.775976 295.488 
L 325.134363 294.996293 
L 326.49275 295.488 
L 336.001461 295.488 
L 337.359848 294.996293 
L 338.718235 295.488 
L 340.076622 294.996293 
L 341.43501 295.488 
L 349.585333 295.488 
L 350.94372 294.996293 
L 352.302107 295.488 
L 374.036303 295.488 
L 375.39469 294.996293 
L 376.753077 294.996293 
L 378.111464 295.488 
L 379.469852 294.504585 
L 380.828239 295.488 
L 398.487273 295.488 
L 398.487273 295.488 
" style="fill:none;stroke:#ff0000;stroke-linecap:square;stroke-width:1.5;"/>
   </g>
   <g id="line2d_26">
    <path clip-path="url(#p77d5eb8980)" d="M 73.832727 294.406244 
L 75.191114 291.406829 
L 76.549502 290.620098 
L 77.907889 292.537756 
L 79.266276 290.964293 
L 80.624663 291.259317 
L 81.983051 281.523512 
L 83.341438 286.637268 
L 84.699825 281.966049 
L 86.058212 264.854634 
L 87.416599 264.362927 
L 88.774987 250.201756 
L 90.133374 262.936976 
L 91.491761 241.793561 
L 92.850148 218.289951 
L 94.208536 238.941659 
L 95.566923 228.763317 
L 96.92531 193.655415 
L 98.283697 217.994927 
L 99.642084 179.346732 
L 101.000472 194.786341 
L 102.358859 187.853268 
L 103.717246 202.604488 
L 105.075633 172.315317 
L 106.434021 165.431415 
L 107.792408 130.667707 
L 109.150795 126.389854 
L 110.509182 108.147512 
L 111.867569 122.161171 
L 113.225957 115.178927 
L 114.584344 115.670634 
L 115.942731 79.874341 
L 117.301118 97.526634 
L 118.659506 94.871415 
L 120.017893 293.422829 
L 121.37628 290.81678 
L 122.734667 285.014634 
L 124.093054 274.00039 
L 125.451442 273.410341 
L 126.809829 267.804878 
L 128.168216 251.431024 
L 129.526603 239.089171 
L 130.88499 242.088585 
L 132.243378 225.813073 
L 133.601765 200.293463 
L 134.960152 217.994927 
L 136.318539 194.04878 
L 137.676927 294.258732 
L 139.035314 290.12839 
L 140.393701 278.425756 
L 141.752088 270.902634 
L 143.110475 279.114146 
L 144.468863 263.674537 
L 145.82725 244.44878 
L 147.185637 250.250927 
L 148.544024 268.59161 
L 149.902412 260.035902 
L 151.260799 256.938146 
L 152.619186 244.252098 
L 153.977573 251.037659 
L 155.33596 250.152585 
L 156.694348 247.005659 
L 158.052735 212.241951 
L 159.411122 233.827902 
L 160.769509 224.534634 
L 162.127897 207.816585 
L 163.486284 221.682732 
L 164.844671 183.673756 
L 166.203058 201.37522 
L 167.561445 198.326634 
L 168.919833 199.850927 
L 171.636607 205.702244 
L 172.994994 185.394732 
L 174.353382 162.432 
L 175.711769 292.439415 
L 177.070156 291.898537 
L 178.428543 292.881951 
L 179.78693 286.09639 
L 181.145318 284.670439 
L 182.503705 277.196488 
L 183.862092 277.196488 
L 185.220479 290.12839 
L 186.578866 274.836293 
L 187.937254 253.643707 
L 189.295641 234.36878 
L 190.654028 197.834927 
L 192.012415 158.006634 
L 193.370803 143.107902 
L 194.72919 290.718439 
L 196.087577 288.259902 
L 197.445964 264.707122 
L 198.804351 243.219512 
L 200.162739 224.436293 
L 201.521126 194.983024 
L 202.879513 231.074341 
L 204.2379 211.307707 
L 205.596288 178.756683 
L 206.954675 207.521561 
L 208.313062 198.424976 
L 209.671449 187.705756 
L 211.029836 224.731317 
L 212.388224 213.225366 
L 213.746611 170.889366 
L 215.104998 283.342829 
L 216.463385 287.325659 
L 217.821773 284.916293 
L 219.18016 262.150244 
L 220.538547 267.755707 
L 221.896934 259.937561 
L 223.255321 270.755122 
L 224.613709 259.298341 
L 225.972096 273.803707 
L 227.330483 243.957073 
L 228.68887 254.872976 
L 230.047258 278.868293 
L 231.405645 254.52878 
L 232.764032 262.887805 
L 234.122419 257.036488 
L 235.480806 230.533463 
L 236.839194 245.678049 
L 238.197581 236.974829 
L 239.555968 226.648976 
L 240.914355 292.213229 
L 242.272742 281.877541 
L 243.63113 282.30041 
L 244.989517 266.162576 
L 246.347904 226.098263 
L 247.706291 197.864429 
L 249.064679 183.359063 
L 250.423066 175.16722 
L 251.781453 286.892956 
L 253.13984 288.427083 
L 254.498227 277.344 
L 255.856615 290.964293 
L 257.215002 279.615688 
L 258.573389 264.20558 
L 259.931776 289.017132 
L 261.290164 284.660798 
L 262.648551 276.921132 
L 264.006938 276.173737 
L 265.365325 271.203679 
L 266.723712 262.573714 
L 268.0821 242.599961 
L 269.440487 244.159777 
L 270.798874 290.344741 
L 272.157261 285.909541 
L 273.515649 276.065561 
L 274.874036 288.663102 
L 276.232423 287.010966 
L 277.59081 278.088377 
L 278.949197 263.502439 
L 280.307585 242.658966 
L 281.665972 209.311376 
L 283.024359 292.523005 
L 284.382746 288.211725 
L 285.741134 279.690077 
L 288.457908 252.011239 
L 289.816295 235.799649 
L 291.174682 225.277112 
L 292.53307 206.406213 
L 293.891457 289.941541 
L 295.249844 286.361912 
L 296.608231 278.176008 
L 297.966618 259.4016 
L 299.325006 232.638865 
L 300.683393 196.724364 
L 302.04178 195.164956 
L 303.400167 176.322732 
L 304.758555 183.550829 
L 306.116942 168.435746 
L 307.475329 151.42759 
L 308.833716 290.856117 
L 310.192103 279.130212 
L 311.550491 290.73319 
L 312.908878 285.2064 
L 314.267265 281.626771 
L 315.625652 271.763122 
L 316.98404 259.235761 
L 318.342427 290.298849 
L 319.700814 279.602576 
L 321.059201 291.954263 
L 322.417588 288.636878 
L 323.775976 278.662492 
L 325.134363 261.861776 
L 326.49275 292.236176 
L 329.209525 279.114146 
L 330.567912 259.239337 
L 331.926299 241.052722 
L 334.643073 189.98213 
L 336.001461 192.442537 
L 337.359848 181.336001 
L 338.718235 177.583141 
L 340.076622 156.033249 
L 341.43501 151.788176 
L 342.793397 157.715517 
L 344.151784 290.695493 
L 345.510171 282.260748 
L 346.868558 272.449396 
L 348.226946 254.927031 
L 349.585333 252.982996 
L 350.94372 200.663384 
L 352.302107 289.194146 
L 353.660494 289.485893 
L 355.018882 280.660879 
L 356.377269 265.523554 
L 357.735656 247.726389 
L 359.094043 234.070478 
L 360.452431 234.339278 
L 361.810818 222.784156 
L 363.169205 290.932332 
L 364.527592 280.719571 
L 365.885979 269.518478 
L 367.244367 290.199688 
L 368.602754 282.425795 
L 369.961141 256.719337 
L 371.319528 245.262556 
L 372.677916 200.625366 
L 374.036303 144.452314 
L 375.39469 129.572608 
L 376.753077 123.43961 
L 378.111464 118.335688 
L 379.469852 115.855819 
L 380.828239 290.059551 
L 382.186626 289.752234 
L 383.545013 283.500176 
L 384.903401 275.505015 
L 386.261788 256.657873 
L 387.620175 232.307279 
L 388.978562 202.486821 
L 390.336949 193.442831 
L 391.695337 199.282161 
L 393.053724 290.647141 
L 394.412111 286.814283 
L 395.770498 292.149307 
L 397.128886 285.377114 
L 398.487273 280.045932 
L 398.487273 280.045932 
" style="fill:none;stroke:#0000ff;stroke-linecap:square;stroke-width:1.5;"/>
   </g>
   <g id="line2d_27">
    <path clip-path="url(#p77d5eb8980)" d="M 73.832727 290.570927 
L 75.191114 276.311415 
L 76.549502 285.162146 
L 77.907889 287.128976 
L 79.266276 284.670439 
L 80.624663 286.637268 
L 81.983051 261.560195 
L 83.341438 280.73678 
L 84.699825 273.361171 
L 86.058212 169.610927 
L 87.416599 190.754341 
L 88.774987 214.356293 
L 90.133374 231.074341 
L 92.850148 120.440195 
L 94.208536 164.202146 
L 95.566923 104.705561 
L 96.92531 53.568 
L 98.283697 109.130927 
L 99.642084 53.568 
L 101.000472 110.114341 
L 102.358859 66.35239 
L 103.717246 151.909463 
L 105.075633 53.568 
L 118.659506 53.568 
L 120.017893 283.687024 
L 121.37628 272.869463 
L 124.093054 254.184585 
L 125.451442 258.609951 
L 128.168216 181.90361 
L 129.526603 179.93678 
L 130.88499 180.920195 
L 132.243378 175.019707 
L 133.601765 53.568 
L 134.960152 152.401171 
L 136.318539 53.568 
L 137.676927 290.570927 
L 139.035314 261.560195 
L 140.393701 217.798244 
L 141.752088 210.914341 
L 143.110475 258.118244 
L 145.82725 100.771902 
L 147.185637 192.229463 
L 148.544024 249.75922 
L 149.902412 161.251902 
L 151.260799 156.826537 
L 152.619186 218.781659 
L 153.977573 205.997268 
L 155.33596 150.926049 
L 156.694348 176.494829 
L 158.052735 77.661659 
L 159.411122 78.645073 
L 160.769509 124.865561 
L 162.127897 146.008976 
L 163.486284 151.909463 
L 164.844671 69.302634 
L 166.203058 53.568 
L 167.561445 62.910439 
L 168.919833 55.043122 
L 170.27822 53.568 
L 171.636607 53.568 
L 172.994994 59.468488 
L 174.353382 53.568 
L 175.711769 286.145561 
L 177.070156 281.228488 
L 178.428543 287.620683 
L 179.78693 245.333854 
L 181.145318 268.444098 
L 182.503705 263.527024 
L 183.862092 253.692878 
L 185.220479 258.118244 
L 186.578866 239.433366 
L 187.937254 158.301659 
L 189.295641 142.567024 
L 190.654028 53.568 
L 193.370803 53.568 
L 194.72919 278.769951 
L 196.087577 279.753366 
L 197.445964 53.568 
L 213.746611 53.568 
L 215.104998 201.080195 
L 216.463385 254.676293 
L 217.821773 240.908488 
L 219.18016 53.568 
L 220.538547 125.848976 
L 221.896934 53.568 
L 223.255321 176.986537 
L 224.613709 154.368 
L 225.972096 235.008 
L 227.330483 53.568 
L 228.68887 53.568 
L 230.047258 231.566049 
L 231.405645 53.568 
L 232.764032 120.440195 
L 234.122419 53.568 
L 236.839194 53.568 
L 238.197581 74.219707 
L 239.555968 53.568 
L 240.914355 268.935805 
L 242.272742 53.568 
L 243.63113 109.130927 
L 244.989517 53.568 
L 251.781453 53.568 
L 253.13984 116.014829 
L 254.498227 116.014829 
L 255.856615 234.024585 
L 257.215002 76.678244 
L 258.573389 53.568 
L 259.931776 174.528 
L 261.290164 155.351415 
L 262.648551 53.568 
L 264.006938 136.174829 
L 265.365325 160.760195 
L 266.723712 143.058732 
L 268.0821 53.568 
L 269.440487 53.568 
L 270.798874 205.997268 
L 272.157261 205.997268 
L 273.515649 53.568 
L 274.874036 88.970927 
L 276.232423 101.755317 
L 277.59081 176.494829 
L 278.949197 53.568 
L 281.665972 53.568 
L 283.024359 261.560195 
L 284.382746 235.008 
L 285.741134 233.532878 
L 287.099521 53.568 
L 293.891457 53.568 
L 295.249844 222.715317 
L 296.608231 171.086049 
L 297.966618 53.568 
L 307.475329 53.568 
L 308.833716 215.339707 
L 310.192103 53.568 
L 311.550491 236.483122 
L 312.908878 89.462634 
L 314.267265 104.213854 
L 315.625652 53.568 
L 316.98404 53.568 
L 318.342427 196.654829 
L 319.700814 53.568 
L 321.059201 251.234341 
L 322.417588 228.124098 
L 323.775976 53.568 
L 325.134363 53.568 
L 326.49275 267.460683 
L 327.851137 53.568 
L 342.793397 53.568 
L 344.151784 228.615805 
L 345.510171 53.568 
L 361.810818 53.568 
L 363.169205 223.698732 
L 364.527592 53.568 
L 365.885979 53.568 
L 367.244367 176.494829 
L 368.602754 53.568 
L 391.695337 53.568 
L 393.053724 194.688 
L 394.412111 53.568 
L 395.770498 250.742634 
L 397.128886 53.568 
L 398.487273 53.568 
L 398.487273 53.568 
" style="fill:none;stroke:#008000;stroke-linecap:square;stroke-width:1.5;"/>
   </g>
   <g id="patch_3">
    <path d="M 57.6 307.584 
L 57.6 41.472 
" style="fill:none;stroke:#000000;stroke-linecap:square;stroke-linejoin:miter;stroke-width:0.8;"/>
   </g>
   <g id="patch_4">
    <path d="M 414.72 307.584 
L 414.72 41.472 
" style="fill:none;stroke:#000000;stroke-linecap:square;stroke-linejoin:miter;stroke-width:0.8;"/>
   </g>
   <g id="patch_5">
    <path d="M 57.6 307.584 
L 414.72 307.584 
" style="fill:none;stroke:#000000;stroke-linecap:square;stroke-linejoin:miter;stroke-width:0.8;"/>
   </g>
   <g id="patch_6">
    <path d="M 57.6 41.472 
L 414.72 41.472 
" style="fill:none;stroke:#000000;stroke-linecap:square;stroke-linejoin:miter;stroke-width:0.8;"/>
   </g>
  </g>
 </g>
 <defs>
  <clipPath id="p77d5eb8980">
   <rect height="266.112" width="357.12" x="57.6" y="41.472"/>
  </clipPath>
 </defs>
</svg>
