<?xml version="1.0" encoding="utf-8" standalone="no"?>
<!DOCTYPE svg PUBLIC "-//W3C//DTD SVG 1.1//EN"
  "http://www.w3.org/Graphics/SVG/1.1/DTD/svg11.dtd">
<!-- Created with matplotlib (https://matplotlib.org/) -->
<svg height="345.6pt" version="1.1" viewBox="0 0 460.8 345.6" width="460.8pt" xmlns="http://www.w3.org/2000/svg" xmlns:xlink="http://www.w3.org/1999/xlink">
 <metadata>
  <rdf:RDF xmlns:cc="http://creativecommons.org/ns#" xmlns:dc="http://purl.org/dc/elements/1.1/" xmlns:rdf="http://www.w3.org/1999/02/22-rdf-syntax-ns#">
   <cc:Work>
    <dc:type rdf:resource="http://purl.org/dc/dcmitype/StillImage"/>
    <dc:date>2022-05-03T11:28:52.153674</dc:date>
    <dc:format>image/svg+xml</dc:format>
    <dc:creator>
     <cc:Agent>
      <dc:title>Matplotlib v3.3.4, https://matplotlib.org/</dc:title>
     </cc:Agent>
    </dc:creator>
   </cc:Work>
  </rdf:RDF>
 </metadata>
 <defs>
  <style type="text/css">*{stroke-linecap:butt;stroke-linejoin:round;}</style>
 </defs>
 <g id="figure_1">
  <g id="patch_1">
   <path d="M 0 345.6 
L 460.8 345.6 
L 460.8 0 
L 0 0 
z
" style="fill:#ffffff;"/>
  </g>
  <g id="axes_1">
   <g id="patch_2">
    <path d="M 57.6 307.584 
L 414.72 307.584 
L 414.72 41.472 
L 57.6 41.472 
z
" style="fill:#ffffff;"/>
   </g>
   <g id="matplotlib.axis_1">
    <g id="xtick_1">
     <g id="line2d_1">
      <path clip-path="url(#p3d70b28ed0)" d="M 73.832727 307.584 
L 73.832727 41.472 
" style="fill:none;stroke:#b0b0b0;stroke-linecap:square;stroke-width:0.8;"/>
     </g>
     <g id="line2d_2">
      <defs>
       <path d="M 0 0 
L 0 3.5 
" id="m49887821e8" style="stroke:#000000;stroke-width:0.8;"/>
      </defs>
      <g>
       <use style="stroke:#000000;stroke-width:0.8;" x="73.832727" xlink:href="#m49887821e8" y="307.584"/>
      </g>
     </g>
     <g id="text_1">
      <!-- 0 -->
      <g transform="translate(70.651477 322.182437)scale(0.1 -0.1)">
       <defs>
        <path d="M 31.78125 66.40625 
Q 24.171875 66.40625 20.328125 58.90625 
Q 16.5 51.421875 16.5 36.375 
Q 16.5 21.390625 20.328125 13.890625 
Q 24.171875 6.390625 31.78125 6.390625 
Q 39.453125 6.390625 43.28125 13.890625 
Q 47.125 21.390625 47.125 36.375 
Q 47.125 51.421875 43.28125 58.90625 
Q 39.453125 66.40625 31.78125 66.40625 
z
M 31.78125 74.21875 
Q 44.046875 74.21875 50.515625 64.515625 
Q 56.984375 54.828125 56.984375 36.375 
Q 56.984375 17.96875 50.515625 8.265625 
Q 44.046875 -1.421875 31.78125 -1.421875 
Q 19.53125 -1.421875 13.0625 8.265625 
Q 6.59375 17.96875 6.59375 36.375 
Q 6.59375 54.828125 13.0625 64.515625 
Q 19.53125 74.21875 31.78125 74.21875 
z
" id="DejaVuSans-48"/>
       </defs>
       <use xlink:href="#DejaVuSans-48"/>
      </g>
     </g>
    </g>
    <g id="xtick_2">
     <g id="line2d_3">
      <path clip-path="url(#p3d70b28ed0)" d="M 136.446912 307.584 
L 136.446912 41.472 
" style="fill:none;stroke:#b0b0b0;stroke-linecap:square;stroke-width:0.8;"/>
     </g>
     <g id="line2d_4">
      <g>
       <use style="stroke:#000000;stroke-width:0.8;" x="136.446912" xlink:href="#m49887821e8" y="307.584"/>
      </g>
     </g>
     <g id="text_2">
      <!-- 200 -->
      <g transform="translate(126.903162 322.182437)scale(0.1 -0.1)">
       <defs>
        <path d="M 19.1875 8.296875 
L 53.609375 8.296875 
L 53.609375 0 
L 7.328125 0 
L 7.328125 8.296875 
Q 12.9375 14.109375 22.625 23.890625 
Q 32.328125 33.6875 34.8125 36.53125 
Q 39.546875 41.84375 41.421875 45.53125 
Q 43.3125 49.21875 43.3125 52.78125 
Q 43.3125 58.59375 39.234375 62.25 
Q 35.15625 65.921875 28.609375 65.921875 
Q 23.96875 65.921875 18.8125 64.3125 
Q 13.671875 62.703125 7.8125 59.421875 
L 7.8125 69.390625 
Q 13.765625 71.78125 18.9375 73 
Q 24.125 74.21875 28.421875 74.21875 
Q 39.75 74.21875 46.484375 68.546875 
Q 53.21875 62.890625 53.21875 53.421875 
Q 53.21875 48.921875 51.53125 44.890625 
Q 49.859375 40.875 45.40625 35.40625 
Q 44.1875 33.984375 37.640625 27.21875 
Q 31.109375 20.453125 19.1875 8.296875 
z
" id="DejaVuSans-50"/>
       </defs>
       <use xlink:href="#DejaVuSans-50"/>
       <use x="63.623047" xlink:href="#DejaVuSans-48"/>
       <use x="127.246094" xlink:href="#DejaVuSans-48"/>
      </g>
     </g>
    </g>
    <g id="xtick_3">
     <g id="line2d_5">
      <path clip-path="url(#p3d70b28ed0)" d="M 199.061096 307.584 
L 199.061096 41.472 
" style="fill:none;stroke:#b0b0b0;stroke-linecap:square;stroke-width:0.8;"/>
     </g>
     <g id="line2d_6">
      <g>
       <use style="stroke:#000000;stroke-width:0.8;" x="199.061096" xlink:href="#m49887821e8" y="307.584"/>
      </g>
     </g>
     <g id="text_3">
      <!-- 400 -->
      <g transform="translate(189.517346 322.182437)scale(0.1 -0.1)">
       <defs>
        <path d="M 37.796875 64.3125 
L 12.890625 25.390625 
L 37.796875 25.390625 
z
M 35.203125 72.90625 
L 47.609375 72.90625 
L 47.609375 25.390625 
L 58.015625 25.390625 
L 58.015625 17.1875 
L 47.609375 17.1875 
L 47.609375 0 
L 37.796875 0 
L 37.796875 17.1875 
L 4.890625 17.1875 
L 4.890625 26.703125 
z
" id="DejaVuSans-52"/>
       </defs>
       <use xlink:href="#DejaVuSans-52"/>
       <use x="63.623047" xlink:href="#DejaVuSans-48"/>
       <use x="127.246094" xlink:href="#DejaVuSans-48"/>
      </g>
     </g>
    </g>
    <g id="xtick_4">
     <g id="line2d_7">
      <path clip-path="url(#p3d70b28ed0)" d="M 261.67528 307.584 
L 261.67528 41.472 
" style="fill:none;stroke:#b0b0b0;stroke-linecap:square;stroke-width:0.8;"/>
     </g>
     <g id="line2d_8">
      <g>
       <use style="stroke:#000000;stroke-width:0.8;" x="261.67528" xlink:href="#m49887821e8" y="307.584"/>
      </g>
     </g>
     <g id="text_4">
      <!-- 600 -->
      <g transform="translate(252.13153 322.182437)scale(0.1 -0.1)">
       <defs>
        <path d="M 33.015625 40.375 
Q 26.375 40.375 22.484375 35.828125 
Q 18.609375 31.296875 18.609375 23.390625 
Q 18.609375 15.53125 22.484375 10.953125 
Q 26.375 6.390625 33.015625 6.390625 
Q 39.65625 6.390625 43.53125 10.953125 
Q 47.40625 15.53125 47.40625 23.390625 
Q 47.40625 31.296875 43.53125 35.828125 
Q 39.65625 40.375 33.015625 40.375 
z
M 52.59375 71.296875 
L 52.59375 62.3125 
Q 48.875 64.0625 45.09375 64.984375 
Q 41.3125 65.921875 37.59375 65.921875 
Q 27.828125 65.921875 22.671875 59.328125 
Q 17.53125 52.734375 16.796875 39.40625 
Q 19.671875 43.65625 24.015625 45.921875 
Q 28.375 48.1875 33.59375 48.1875 
Q 44.578125 48.1875 50.953125 41.515625 
Q 57.328125 34.859375 57.328125 23.390625 
Q 57.328125 12.15625 50.6875 5.359375 
Q 44.046875 -1.421875 33.015625 -1.421875 
Q 20.359375 -1.421875 13.671875 8.265625 
Q 6.984375 17.96875 6.984375 36.375 
Q 6.984375 53.65625 15.1875 63.9375 
Q 23.390625 74.21875 37.203125 74.21875 
Q 40.921875 74.21875 44.703125 73.484375 
Q 48.484375 72.75 52.59375 71.296875 
z
" id="DejaVuSans-54"/>
       </defs>
       <use xlink:href="#DejaVuSans-54"/>
       <use x="63.623047" xlink:href="#DejaVuSans-48"/>
       <use x="127.246094" xlink:href="#DejaVuSans-48"/>
      </g>
     </g>
    </g>
    <g id="xtick_5">
     <g id="line2d_9">
      <path clip-path="url(#p3d70b28ed0)" d="M 324.289464 307.584 
L 324.289464 41.472 
" style="fill:none;stroke:#b0b0b0;stroke-linecap:square;stroke-width:0.8;"/>
     </g>
     <g id="line2d_10">
      <g>
       <use style="stroke:#000000;stroke-width:0.8;" x="324.289464" xlink:href="#m49887821e8" y="307.584"/>
      </g>
     </g>
     <g id="text_5">
      <!-- 800 -->
      <g transform="translate(314.745714 322.182437)scale(0.1 -0.1)">
       <defs>
        <path d="M 31.78125 34.625 
Q 24.75 34.625 20.71875 30.859375 
Q 16.703125 27.09375 16.703125 20.515625 
Q 16.703125 13.921875 20.71875 10.15625 
Q 24.75 6.390625 31.78125 6.390625 
Q 38.8125 6.390625 42.859375 10.171875 
Q 46.921875 13.96875 46.921875 20.515625 
Q 46.921875 27.09375 42.890625 30.859375 
Q 38.875 34.625 31.78125 34.625 
z
M 21.921875 38.8125 
Q 15.578125 40.375 12.03125 44.71875 
Q 8.5 49.078125 8.5 55.328125 
Q 8.5 64.0625 14.71875 69.140625 
Q 20.953125 74.21875 31.78125 74.21875 
Q 42.671875 74.21875 48.875 69.140625 
Q 55.078125 64.0625 55.078125 55.328125 
Q 55.078125 49.078125 51.53125 44.71875 
Q 48 40.375 41.703125 38.8125 
Q 48.828125 37.15625 52.796875 32.3125 
Q 56.78125 27.484375 56.78125 20.515625 
Q 56.78125 9.90625 50.3125 4.234375 
Q 43.84375 -1.421875 31.78125 -1.421875 
Q 19.734375 -1.421875 13.25 4.234375 
Q 6.78125 9.90625 6.78125 20.515625 
Q 6.78125 27.484375 10.78125 32.3125 
Q 14.796875 37.15625 21.921875 38.8125 
z
M 18.3125 54.390625 
Q 18.3125 48.734375 21.84375 45.5625 
Q 25.390625 42.390625 31.78125 42.390625 
Q 38.140625 42.390625 41.71875 45.5625 
Q 45.3125 48.734375 45.3125 54.390625 
Q 45.3125 60.0625 41.71875 63.234375 
Q 38.140625 66.40625 31.78125 66.40625 
Q 25.390625 66.40625 21.84375 63.234375 
Q 18.3125 60.0625 18.3125 54.390625 
z
" id="DejaVuSans-56"/>
       </defs>
       <use xlink:href="#DejaVuSans-56"/>
       <use x="63.623047" xlink:href="#DejaVuSans-48"/>
       <use x="127.246094" xlink:href="#DejaVuSans-48"/>
      </g>
     </g>
    </g>
    <g id="xtick_6">
     <g id="line2d_11">
      <path clip-path="url(#p3d70b28ed0)" d="M 386.903649 307.584 
L 386.903649 41.472 
" style="fill:none;stroke:#b0b0b0;stroke-linecap:square;stroke-width:0.8;"/>
     </g>
     <g id="line2d_12">
      <g>
       <use style="stroke:#000000;stroke-width:0.8;" x="386.903649" xlink:href="#m49887821e8" y="307.584"/>
      </g>
     </g>
     <g id="text_6">
      <!-- 1000 -->
      <g transform="translate(374.178649 322.182437)scale(0.1 -0.1)">
       <defs>
        <path d="M 12.40625 8.296875 
L 28.515625 8.296875 
L 28.515625 63.921875 
L 10.984375 60.40625 
L 10.984375 69.390625 
L 28.421875 72.90625 
L 38.28125 72.90625 
L 38.28125 8.296875 
L 54.390625 8.296875 
L 54.390625 0 
L 12.40625 0 
z
" id="DejaVuSans-49"/>
       </defs>
       <use xlink:href="#DejaVuSans-49"/>
       <use x="63.623047" xlink:href="#DejaVuSans-48"/>
       <use x="127.246094" xlink:href="#DejaVuSans-48"/>
       <use x="190.869141" xlink:href="#DejaVuSans-48"/>
      </g>
     </g>
    </g>
   </g>
   <g id="matplotlib.axis_2">
    <g id="ytick_1">
     <g id="line2d_13">
      <path clip-path="url(#p3d70b28ed0)" d="M 57.6 278.872585 
L 414.72 278.872585 
" style="fill:none;stroke:#b0b0b0;stroke-linecap:square;stroke-width:0.8;"/>
     </g>
     <g id="line2d_14">
      <defs>
       <path d="M 0 0 
L -3.5 0 
" id="mae7bdb5b31" style="stroke:#000000;stroke-width:0.8;"/>
      </defs>
      <g>
       <use style="stroke:#000000;stroke-width:0.8;" x="57.6" xlink:href="#mae7bdb5b31" y="278.872585"/>
      </g>
     </g>
     <g id="text_7">
      <!-- −4000 -->
      <g transform="translate(16.770313 282.671804)scale(0.1 -0.1)">
       <defs>
        <path d="M 10.59375 35.5 
L 73.1875 35.5 
L 73.1875 27.203125 
L 10.59375 27.203125 
z
" id="DejaVuSans-8722"/>
       </defs>
       <use xlink:href="#DejaVuSans-8722"/>
       <use x="83.789062" xlink:href="#DejaVuSans-52"/>
       <use x="147.412109" xlink:href="#DejaVuSans-48"/>
       <use x="211.035156" xlink:href="#DejaVuSans-48"/>
       <use x="274.658203" xlink:href="#DejaVuSans-48"/>
      </g>
     </g>
    </g>
    <g id="ytick_2">
     <g id="line2d_15">
      <path clip-path="url(#p3d70b28ed0)" d="M 57.6 226.18869 
L 414.72 226.18869 
" style="fill:none;stroke:#b0b0b0;stroke-linecap:square;stroke-width:0.8;"/>
     </g>
     <g id="line2d_16">
      <g>
       <use style="stroke:#000000;stroke-width:0.8;" x="57.6" xlink:href="#mae7bdb5b31" y="226.18869"/>
      </g>
     </g>
     <g id="text_8">
      <!-- −3000 -->
      <g transform="translate(16.770313 229.987908)scale(0.1 -0.1)">
       <defs>
        <path d="M 40.578125 39.3125 
Q 47.65625 37.796875 51.625 33 
Q 55.609375 28.21875 55.609375 21.1875 
Q 55.609375 10.40625 48.1875 4.484375 
Q 40.765625 -1.421875 27.09375 -1.421875 
Q 22.515625 -1.421875 17.65625 -0.515625 
Q 12.796875 0.390625 7.625 2.203125 
L 7.625 11.71875 
Q 11.71875 9.328125 16.59375 8.109375 
Q 21.484375 6.890625 26.8125 6.890625 
Q 36.078125 6.890625 40.9375 10.546875 
Q 45.796875 14.203125 45.796875 21.1875 
Q 45.796875 27.640625 41.28125 31.265625 
Q 36.765625 34.90625 28.71875 34.90625 
L 20.21875 34.90625 
L 20.21875 43.015625 
L 29.109375 43.015625 
Q 36.375 43.015625 40.234375 45.921875 
Q 44.09375 48.828125 44.09375 54.296875 
Q 44.09375 59.90625 40.109375 62.90625 
Q 36.140625 65.921875 28.71875 65.921875 
Q 24.65625 65.921875 20.015625 65.03125 
Q 15.375 64.15625 9.8125 62.3125 
L 9.8125 71.09375 
Q 15.4375 72.65625 20.34375 73.4375 
Q 25.25 74.21875 29.59375 74.21875 
Q 40.828125 74.21875 47.359375 69.109375 
Q 53.90625 64.015625 53.90625 55.328125 
Q 53.90625 49.265625 50.4375 45.09375 
Q 46.96875 40.921875 40.578125 39.3125 
z
" id="DejaVuSans-51"/>
       </defs>
       <use xlink:href="#DejaVuSans-8722"/>
       <use x="83.789062" xlink:href="#DejaVuSans-51"/>
       <use x="147.412109" xlink:href="#DejaVuSans-48"/>
       <use x="211.035156" xlink:href="#DejaVuSans-48"/>
       <use x="274.658203" xlink:href="#DejaVuSans-48"/>
      </g>
     </g>
    </g>
    <g id="ytick_3">
     <g id="line2d_17">
      <path clip-path="url(#p3d70b28ed0)" d="M 57.6 173.504794 
L 414.72 173.504794 
" style="fill:none;stroke:#b0b0b0;stroke-linecap:square;stroke-width:0.8;"/>
     </g>
     <g id="line2d_18">
      <g>
       <use style="stroke:#000000;stroke-width:0.8;" x="57.6" xlink:href="#mae7bdb5b31" y="173.504794"/>
      </g>
     </g>
     <g id="text_9">
      <!-- −2000 -->
      <g transform="translate(16.770313 177.304013)scale(0.1 -0.1)">
       <use xlink:href="#DejaVuSans-8722"/>
       <use x="83.789062" xlink:href="#DejaVuSans-50"/>
       <use x="147.412109" xlink:href="#DejaVuSans-48"/>
       <use x="211.035156" xlink:href="#DejaVuSans-48"/>
       <use x="274.658203" xlink:href="#DejaVuSans-48"/>
      </g>
     </g>
    </g>
    <g id="ytick_4">
     <g id="line2d_19">
      <path clip-path="url(#p3d70b28ed0)" d="M 57.6 120.820899 
L 414.72 120.820899 
" style="fill:none;stroke:#b0b0b0;stroke-linecap:square;stroke-width:0.8;"/>
     </g>
     <g id="line2d_20">
      <g>
       <use style="stroke:#000000;stroke-width:0.8;" x="57.6" xlink:href="#mae7bdb5b31" y="120.820899"/>
      </g>
     </g>
     <g id="text_10">
      <!-- −1000 -->
      <g transform="translate(16.770313 124.620118)scale(0.1 -0.1)">
       <use xlink:href="#DejaVuSans-8722"/>
       <use x="83.789062" xlink:href="#DejaVuSans-49"/>
       <use x="147.412109" xlink:href="#DejaVuSans-48"/>
       <use x="211.035156" xlink:href="#DejaVuSans-48"/>
       <use x="274.658203" xlink:href="#DejaVuSans-48"/>
      </g>
     </g>
    </g>
    <g id="ytick_5">
     <g id="line2d_21">
      <path clip-path="url(#p3d70b28ed0)" d="M 57.6 68.137004 
L 414.72 68.137004 
" style="fill:none;stroke:#b0b0b0;stroke-linecap:square;stroke-width:0.8;"/>
     </g>
     <g id="line2d_22">
      <g>
       <use style="stroke:#000000;stroke-width:0.8;" x="57.6" xlink:href="#mae7bdb5b31" y="68.137004"/>
      </g>
     </g>
     <g id="text_11">
      <!-- 0 -->
      <g transform="translate(44.2375 71.936223)scale(0.1 -0.1)">
       <use xlink:href="#DejaVuSans-48"/>
      </g>
     </g>
    </g>
   </g>
   <g id="line2d_23">
    <path clip-path="url(#p3d70b28ed0)" d="M 73.832727 102.943575 
L 74.145798 80.676779 
L 74.458869 80.707649 
L 74.77194 100.691753 
L 75.398082 77.292268 
L 75.711153 79.137569 
L 76.024224 98.961923 
L 76.337295 87.471357 
L 76.650366 93.266659 
L 76.963436 96.901849 
L 77.276507 95.067666 
L 77.589578 96.622986 
L 77.902649 94.348852 
L 78.21572 102.860899 
L 78.528791 96.868098 
L 78.841862 88.485817 
L 79.154933 94.507809 
L 79.781075 80.121504 
L 80.094146 78.908358 
L 80.407217 92.803326 
L 80.720288 135.122483 
L 81.033358 75.86563 
L 81.346429 88.933298 
L 81.6595 89.991341 
L 81.972571 78.261207 
L 82.285642 81.925696 
L 82.598713 100.921782 
L 82.911784 77.284771 
L 83.224855 85.680629 
L 83.537926 97.683927 
L 83.850997 89.094838 
L 84.164068 94.082757 
L 84.79021 82.844831 
L 85.10328 81.543111 
L 85.416351 87.720264 
L 85.729422 76.638845 
L 86.042493 90.956546 
L 86.355564 84.801514 
L 86.668635 95.181012 
L 86.981706 87.247383 
L 87.294777 104.170284 
L 87.607848 82.307765 
L 87.920919 79.999945 
L 88.23399 83.428748 
L 88.547061 103.889889 
L 88.860131 85.959823 
L 89.173202 94.74197 
L 89.486273 87.325522 
L 89.799344 102.783734 
L 90.112415 94.083188 
L 90.425486 100.237271 
L 90.738557 83.642533 
L 91.051628 100.317726 
L 91.364699 97.729206 
L 91.67777 99.744681 
L 91.990841 84.967803 
L 92.303912 83.679032 
L 92.616983 136.325958 
L 92.930053 87.539335 
L 93.243124 107.405096 
L 93.556195 85.433368 
L 93.869266 80.122225 
L 94.182337 94.423939 
L 94.495408 81.772618 
L 94.808479 87.700321 
L 95.12155 85.009103 
L 95.434621 78.113351 
L 95.747692 87.999375 
L 96.060763 93.074314 
L 96.373834 89.203848 
L 96.686905 80.506082 
L 96.999975 108.328604 
L 97.313046 83.832447 
L 97.626117 76.933251 
L 97.939188 88.757066 
L 98.252259 76.480625 
L 98.56533 102.454574 
L 98.878401 78.281613 
L 99.191472 76.210683 
L 99.504543 80.082321 
L 99.817614 81.890264 
L 100.130685 77.051367 
L 100.443756 95.240993 
L 100.756827 86.997776 
L 101.069897 86.05225 
L 101.382968 102.30583 
L 101.696039 91.858665 
L 102.00911 100.373187 
L 102.322181 85.033834 
L 102.635252 96.314244 
L 102.948323 76.918933 
L 103.261394 84.624834 
L 103.574465 86.956921 
L 103.887536 85.655016 
L 104.200607 83.756101 
L 104.513678 86.715175 
L 104.826748 83.809344 
L 105.139819 77.45226 
L 105.45289 89.072085 
L 105.765961 82.45948 
L 106.079032 106.275525 
L 106.392103 81.649191 
L 106.705174 85.04952 
L 107.018245 85.112962 
L 107.331316 83.214951 
L 107.644387 82.36311 
L 107.957458 83.603398 
L 108.270529 80.773359 
L 108.5836 82.174892 
L 108.89667 97.661734 
L 109.209741 98.642925 
L 109.522812 85.539 
L 109.835883 84.329196 
L 110.148954 78.858226 
L 110.462025 84.727575 
L 110.775096 81.223566 
L 111.088167 87.860571 
L 111.401238 83.332388 
L 111.714309 91.789521 
L 112.02738 89.680379 
L 112.340451 83.975519 
L 112.653522 85.125101 
L 112.966592 78.051294 
L 113.279663 93.201667 
L 113.592734 94.736393 
L 113.905805 82.404827 
L 114.218876 77.669277 
L 114.531947 87.094634 
L 114.845018 100.670724 
L 115.158089 81.415008 
L 115.47116 76.253765 
L 115.784231 77.698706 
L 116.097302 76.649438 
L 116.410373 76.957518 
L 116.723443 75.929618 
L 117.036514 93.905084 
L 117.349585 88.465763 
L 117.662656 76.337897 
L 118.601869 92.884487 
L 118.91494 77.780166 
L 119.228011 82.477769 
L 119.854153 85.504627 
L 120.167224 76.938298 
L 120.480295 79.760489 
L 120.793365 85.366906 
L 121.106436 85.453131 
L 121.419507 90.329874 
L 121.732578 78.413186 
L 122.045649 80.132014 
L 122.35872 92.908736 
L 122.984862 77.372007 
L 123.297933 91.547403 
L 123.924075 79.457428 
L 124.550217 89.472837 
L 124.863287 83.435701 
L 125.489429 86.214978 
L 125.8025 85.396399 
L 126.115571 85.747576 
L 126.428642 81.451123 
L 126.741713 110.248615 
L 127.054784 94.14067 
L 127.367855 91.134411 
L 127.680926 165.374977 
L 127.993997 103.699141 
L 128.307068 91.053691 
L 128.620139 105.473022 
L 129.24628 92.825773 
L 129.559351 108.43502 
L 129.872422 86.891581 
L 130.185493 86.590188 
L 130.498564 104.367839 
L 130.811635 89.298115 
L 131.124706 98.283654 
L 131.437777 86.001575 
L 131.750848 83.791973 
L 132.063919 85.157478 
L 132.37699 139.664238 
L 132.69006 90.824497 
L 133.003131 95.538809 
L 133.316202 85.367213 
L 133.629273 94.474943 
L 133.942344 157.726479 
L 134.255415 88.206985 
L 134.568486 79.338565 
L 134.881557 87.171702 
L 135.194628 85.605586 
L 135.507699 95.116732 
L 135.82077 93.226455 
L 136.133841 83.762817 
L 136.446912 101.583123 
L 136.759982 85.886132 
L 137.073053 87.002329 
L 137.386124 100.657076 
L 137.699195 83.538514 
L 138.012266 91.817239 
L 138.325337 109.949678 
L 138.638408 78.97872 
L 139.26455 100.600894 
L 139.577621 108.868256 
L 139.890692 131.339744 
L 140.203763 110.161537 
L 140.516834 109.448888 
L 141.142975 87.418073 
L 141.456046 101.360135 
L 141.769117 99.864827 
L 142.082188 103.611619 
L 142.395259 85.066946 
L 142.70833 82.044638 
L 143.021401 94.42769 
L 143.334472 95.655746 
L 143.647543 86.309189 
L 143.960614 87.392858 
L 144.586756 87.090025 
L 144.899826 97.410445 
L 145.212897 77.7501 
L 145.525968 94.401096 
L 145.839039 78.724854 
L 146.465181 82.665548 
L 146.778252 83.551258 
L 147.091323 83.17582 
L 147.404394 81.859585 
L 147.717465 85.506131 
L 148.030536 91.049 
L 148.343607 94.074022 
L 148.656677 83.799739 
L 148.969748 100.671117 
L 149.282819 84.265301 
L 149.59589 101.930955 
L 149.908961 79.91281 
L 150.222032 81.689449 
L 150.535103 79.206411 
L 150.848174 82.77927 
L 151.161245 78.147739 
L 151.474316 79.826218 
L 151.787387 90.061029 
L 152.100458 85.252306 
L 152.413529 76.736256 
L 152.726599 80.870567 
L 153.03967 77.452153 
L 153.352741 80.35711 
L 153.665812 77.761656 
L 153.978883 87.045324 
L 154.291954 85.501331 
L 154.605025 80.731626 
L 154.918096 85.947128 
L 155.231167 87.225233 
L 155.544238 78.488741 
L 155.857309 89.98048 
L 156.483451 84.332247 
L 156.796521 78.540118 
L 157.109592 104.224183 
L 157.422663 77.195409 
L 157.735734 77.332098 
L 158.048805 81.539452 
L 158.361876 81.249619 
L 158.674947 103.044254 
L 158.988018 84.942567 
L 159.301089 89.458544 
L 159.61416 106.718188 
L 159.927231 85.641341 
L 160.240302 94.025581 
L 160.553372 92.123873 
L 160.866443 80.378117 
L 161.179514 88.565062 
L 161.492585 85.88829 
L 161.805656 95.361681 
L 162.118727 87.666751 
L 162.431798 85.644207 
L 162.744869 89.25682 
L 163.05794 89.800022 
L 163.371011 97.956341 
L 163.684082 98.664683 
L 163.997153 104.880608 
L 164.310224 105.871547 
L 164.623294 167.638539 
L 164.936365 93.937354 
L 165.249436 79.72271 
L 165.562507 79.067896 
L 165.875578 131.281374 
L 166.188649 211.536675 
L 166.50172 80.936595 
L 166.814791 121.56081 
L 167.127862 208.317026 
L 167.440933 93.904094 
L 167.754004 85.340361 
L 168.067075 86.357078 
L 168.380146 79.150982 
L 168.693216 81.909649 
L 169.006287 99.56579 
L 169.319358 110.196691 
L 169.632429 81.260257 
L 170.258571 100.447578 
L 170.884713 95.754667 
L 171.197784 128.107111 
L 171.510855 104.627143 
L 171.823926 100.280079 
L 172.136997 121.863894 
L 172.450068 80.91189 
L 172.763138 95.304088 
L 173.076209 83.031555 
L 173.38928 107.945504 
L 173.702351 76.424823 
L 174.015422 92.07649 
L 174.328493 93.507782 
L 174.641564 94.265917 
L 174.954635 84.363909 
L 175.267706 86.958445 
L 175.580777 90.581653 
L 175.893848 110.853847 
L 176.206919 108.296768 
L 176.519989 84.844846 
L 176.83306 91.036313 
L 177.146131 105.502078 
L 177.459202 77.12079 
L 177.772273 98.366923 
L 178.085344 85.482672 
L 178.398415 91.080127 
L 178.711486 104.297892 
L 179.024557 103.480997 
L 179.337628 100.048776 
L 179.650699 124.614238 
L 180.276841 95.677153 
L 180.589911 93.417966 
L 180.902982 115.606652 
L 181.216053 118.637902 
L 181.529124 97.80825 
L 181.842195 89.3362 
L 182.155266 96.257872 
L 182.468337 86.086815 
L 182.781408 104.682203 
L 183.094479 93.451251 
L 183.40755 109.433171 
L 183.720621 96.247169 
L 184.033692 89.08454 
L 184.346763 77.808136 
L 184.659833 86.646975 
L 184.972904 114.396515 
L 185.285975 92.843719 
L 185.599046 108.932385 
L 185.912117 104.673497 
L 186.538259 84.717099 
L 186.85133 84.483247 
L 187.164401 295.488 
L 187.477472 81.800981 
L 187.790543 110.894473 
L 188.103614 98.88913 
L 188.416684 79.327345 
L 188.729755 83.422296 
L 189.042826 96.267473 
L 189.355897 103.49224 
L 189.668968 87.434524 
L 189.982039 89.048352 
L 190.608181 104.991647 
L 190.921252 88.226616 
L 191.234323 89.131766 
L 191.547394 105.638335 
L 191.860465 112.833139 
L 192.173536 94.078129 
L 192.486606 99.133022 
L 192.799677 88.624151 
L 193.112748 103.649915 
L 193.425819 99.840555 
L 193.73889 97.941723 
L 194.051961 108.067155 
L 194.365032 82.224417 
L 194.678103 98.567377 
L 194.991174 95.209004 
L 195.304245 107.755007 
L 195.617316 93.49828 
L 195.930387 103.28784 
L 196.243458 95.45881 
L 196.556528 106.876219 
L 196.869599 100.481007 
L 197.18267 98.072106 
L 197.495741 93.008972 
L 197.808812 118.012087 
L 198.121883 86.964878 
L 198.434954 82.975091 
L 198.748025 97.671049 
L 199.061096 83.479302 
L 199.374167 83.88937 
L 199.687238 175.146646 
L 200.000309 110.244118 
L 200.31338 95.641628 
L 200.62645 94.444201 
L 200.939521 99.001387 
L 201.252592 99.235379 
L 201.565663 78.332527 
L 201.878734 76.334341 
L 202.191805 77.109217 
L 202.504876 111.198729 
L 202.817947 76.786027 
L 203.131018 78.173757 
L 203.444089 96.131481 
L 203.75716 78.103885 
L 204.070231 109.846203 
L 204.383301 112.589958 
L 204.696372 110.073354 
L 205.009443 203.549017 
L 205.322514 112.661244 
L 205.635585 105.384522 
L 205.948656 89.735843 
L 206.261727 84.782198 
L 206.574798 91.994312 
L 206.887869 96.130696 
L 207.20094 89.683145 
L 207.514011 93.957066 
L 207.827082 77.89832 
L 208.140153 106.443439 
L 208.453223 76.777395 
L 208.766294 92.540173 
L 209.079365 89.033262 
L 209.392436 97.478285 
L 210.018578 85.707392 
L 210.331649 79.72124 
L 210.957791 92.723486 
L 211.270862 87.80808 
L 211.583933 97.045196 
L 211.897004 84.867241 
L 212.210075 90.092332 
L 212.523145 92.704136 
L 212.836216 84.095373 
L 213.149287 109.393332 
L 213.462358 86.418438 
L 213.775429 76.757627 
L 214.0885 109.860464 
L 214.401571 106.782253 
L 214.714642 107.009576 
L 215.027713 88.271924 
L 215.653855 83.639269 
L 215.966926 83.98342 
L 216.593067 96.700567 
L 216.906138 83.83088 
L 217.53228 85.423956 
L 217.845351 94.769579 
L 218.158422 86.322131 
L 218.471493 88.606258 
L 219.097635 86.959799 
L 219.410706 86.680393 
L 219.723777 112.235732 
L 220.036848 88.025209 
L 220.349918 96.767639 
L 220.662989 87.442552 
L 220.97606 87.910949 
L 221.289131 96.189001 
L 221.602202 95.899092 
L 221.915273 87.416656 
L 222.228344 86.006162 
L 222.541415 86.738157 
L 222.854486 87.835658 
L 223.480628 94.735805 
L 223.793699 95.59181 
L 224.10677 85.879482 
L 224.41984 84.890222 
L 224.732911 84.412308 
L 225.045982 87.755364 
L 225.359053 102.04259 
L 225.672124 98.838936 
L 225.985195 101.331469 
L 226.298266 82.276685 
L 226.611337 81.365304 
L 226.924408 85.209336 
L 227.237479 86.127165 
L 227.55055 94.492104 
L 227.863621 85.794146 
L 228.176692 90.121183 
L 228.489762 82.308063 
L 228.802833 80.583098 
L 229.115904 88.64501 
L 229.428975 82.275528 
L 229.742046 86.499924 
L 230.055117 85.217899 
L 230.368188 95.290502 
L 230.681259 83.679396 
L 231.307401 104.105983 
L 231.620472 89.528823 
L 231.933543 86.413222 
L 232.246613 99.548516 
L 232.559684 86.028951 
L 232.872755 86.67108 
L 233.185826 102.100662 
L 234.43811 79.21762 
L 234.751181 88.070071 
L 235.064252 85.818717 
L 235.377323 76.678602 
L 235.690394 86.144152 
L 236.003465 85.056048 
L 236.316535 81.967373 
L 236.629606 90.956405 
L 236.942677 84.555736 
L 237.255748 100.958521 
L 237.568819 100.943205 
L 237.88189 87.143313 
L 238.194961 85.277234 
L 238.508032 104.200384 
L 238.821103 98.170854 
L 239.134174 82.265193 
L 239.447245 79.56552 
L 239.760316 99.675214 
L 240.073387 77.588546 
L 240.386457 93.658847 
L 240.699528 91.339599 
L 241.012599 110.801829 
L 241.32567 86.76205 
L 241.638741 96.294638 
L 241.951812 86.128633 
L 242.264883 93.396575 
L 242.577954 80.002726 
L 242.891025 81.707842 
L 243.204096 85.296309 
L 243.517167 94.608076 
L 243.830238 77.739609 
L 244.143308 80.662928 
L 244.456379 92.678562 
L 244.76945 100.354516 
L 245.082521 96.610489 
L 245.395592 114.645386 
L 245.708663 95.955615 
L 246.021734 85.403892 
L 246.334805 99.834784 
L 246.647876 83.375013 
L 246.960947 98.676861 
L 247.274018 81.937665 
L 247.587089 84.095889 
L 247.90016 95.314392 
L 248.21323 86.126154 
L 248.526301 98.660687 
L 248.839372 90.149147 
L 249.152443 92.981854 
L 249.465514 94.516182 
L 250.404727 83.237629 
L 250.717798 85.283963 
L 251.030869 82.405051 
L 251.34394 96.853304 
L 251.657011 84.527251 
L 251.970082 84.219755 
L 252.283152 96.606763 
L 252.596223 81.509415 
L 252.909294 97.344976 
L 253.222365 82.862401 
L 253.535436 96.797192 
L 253.848507 82.126604 
L 254.161578 97.240655 
L 254.474649 82.432807 
L 254.78772 86.186315 
L 255.100791 85.8346 
L 255.413862 107.338086 
L 255.726933 97.168555 
L 256.040004 102.840322 
L 256.353074 82.601081 
L 256.666145 76.344284 
L 256.979216 78.11679 
L 257.292287 116.177147 
L 257.605358 78.833942 
L 257.918429 77.214369 
L 258.2315 87.77845 
L 258.544571 92.256492 
L 258.857642 89.690929 
L 259.170713 76.117503 
L 259.483784 88.795522 
L 259.796855 77.800486 
L 260.109925 101.199686 
L 260.422996 89.788183 
L 260.736067 82.754607 
L 261.049138 106.175628 
L 261.362209 88.112963 
L 261.67528 93.846225 
L 261.988351 94.488627 
L 262.301422 84.061729 
L 262.614493 94.531675 
L 262.927564 76.228722 
L 263.553706 87.133 
L 263.866777 104.200594 
L 264.179847 89.220942 
L 264.492918 95.362472 
L 264.805989 85.06267 
L 265.11906 95.60832 
L 265.432131 85.696556 
L 265.745202 82.898735 
L 266.371344 85.537687 
L 266.684415 92.011044 
L 266.997486 91.000207 
L 267.310557 101.671207 
L 267.623628 75.284902 
L 267.936699 95.76748 
L 268.249769 91.440613 
L 268.56284 97.949413 
L 268.875911 84.55411 
L 269.188982 83.352594 
L 269.502053 96.862727 
L 269.815124 93.439366 
L 270.128195 106.483151 
L 270.441266 99.704213 
L 270.754337 107.003009 
L 271.067408 88.616758 
L 271.380479 83.838341 
L 271.69355 92.692501 
L 272.00662 85.945785 
L 272.319691 104.274504 
L 272.632762 106.521926 
L 272.945833 93.925507 
L 273.571975 104.969836 
L 273.885046 75.580359 
L 274.198117 88.393143 
L 274.824259 78.597127 
L 275.13733 92.430065 
L 275.450401 85.708645 
L 275.763472 75.044995 
L 276.076542 85.044635 
L 276.389613 87.387623 
L 276.702684 84.840873 
L 277.015755 95.395795 
L 277.328826 92.240604 
L 277.641897 94.359828 
L 277.954968 94.23941 
L 278.268039 90.356788 
L 278.58111 101.285743 
L 278.894181 75.887265 
L 279.207252 105.455256 
L 279.520323 84.027119 
L 279.833394 77.816167 
L 280.146464 85.862717 
L 280.459535 103.848903 
L 280.772606 83.412015 
L 281.085677 84.066753 
L 281.398748 88.598369 
L 281.711819 82.570611 
L 282.02489 104.095458 
L 282.651032 98.598573 
L 282.964103 83.997106 
L 283.277174 94.076621 
L 283.590245 88.038192 
L 283.903316 89.078361 
L 284.216386 114.082464 
L 284.529457 82.072869 
L 284.842528 116.36482 
L 285.155599 79.11348 
L 285.46867 86.837602 
L 285.781741 105.649823 
L 286.094812 109.699623 
L 286.407883 97.93115 
L 286.720954 101.247162 
L 287.347096 98.845089 
L 287.660167 97.924933 
L 287.973237 113.348979 
L 288.286308 104.038113 
L 288.599379 101.590895 
L 288.91245 100.95661 
L 289.225521 107.456999 
L 289.538592 84.738334 
L 289.851663 99.230481 
L 290.164734 78.730312 
L 290.477805 90.264197 
L 290.790876 82.052931 
L 291.103947 100.172935 
L 291.417018 97.025652 
L 291.730089 97.235559 
L 292.043159 84.672595 
L 292.35623 91.269449 
L 292.669301 108.740825 
L 292.982372 88.727574 
L 293.608514 93.41287 
L 293.921585 77.092098 
L 294.234656 75.999115 
L 294.547727 76.814158 
L 294.860798 81.190847 
L 295.173869 78.700231 
L 295.48694 92.428595 
L 295.800011 86.913957 
L 296.113081 85.266482 
L 296.426152 97.498625 
L 296.739223 81.662944 
L 297.365365 104.437896 
L 297.678436 103.620347 
L 297.991507 111.009415 
L 298.304578 98.65225 
L 298.617649 92.838483 
L 298.93072 81.560589 
L 299.243791 84.662041 
L 299.556862 92.134087 
L 299.869932 85.854627 
L 300.183003 107.748853 
L 300.809145 76.048169 
L 301.122216 78.688924 
L 301.435287 88.02134 
L 301.748358 76.365832 
L 302.061429 92.979236 
L 302.3745 84.100918 
L 303.000642 94.03319 
L 303.313713 84.668608 
L 303.626784 101.781455 
L 303.939854 87.698876 
L 304.252925 95.579836 
L 304.565996 79.230918 
L 304.879067 107.777005 
L 305.192138 81.201565 
L 305.505209 95.799531 
L 305.81828 86.897309 
L 306.131351 90.088277 
L 306.444422 85.024765 
L 306.757493 96.503222 
L 307.070564 90.754246 
L 307.696706 84.323903 
L 308.009776 85.635376 
L 308.322847 83.343002 
L 308.635918 95.465445 
L 308.948989 84.292321 
L 309.26206 83.983165 
L 309.575131 88.12274 
L 309.888202 101.893168 
L 310.201273 94.87825 
L 310.514344 84.298171 
L 310.827415 91.083055 
L 311.140486 88.728932 
L 311.453557 99.748765 
L 311.766628 76.783778 
L 312.079698 98.801367 
L 312.392769 76.650845 
L 312.70584 87.322745 
L 313.018911 84.200365 
L 313.331982 94.368712 
L 313.645053 87.377484 
L 313.958124 98.017883 
L 314.584266 80.595481 
L 314.897337 82.994143 
L 315.210408 82.599991 
L 315.523479 94.675938 
L 315.836549 81.61904 
L 316.14962 85.00803 
L 316.462691 94.464018 
L 316.775762 93.634619 
L 317.088833 77.761069 
L 317.401904 78.233621 
L 317.714975 113.01057 
L 318.028046 95.784946 
L 318.341117 107.965854 
L 318.654188 98.741131 
L 318.967259 98.809956 
L 319.28033 95.401092 
L 319.593401 82.05828 
L 319.906471 91.551449 
L 320.219542 76.85912 
L 320.845684 101.926897 
L 321.158755 83.669254 
L 321.471826 82.060497 
L 321.784897 82.119493 
L 322.097968 83.651249 
L 322.72411 79.623188 
L 323.037181 80.244213 
L 323.663323 98.127867 
L 323.976393 91.485729 
L 324.289464 76.32772 
L 324.602535 96.726568 
L 324.915606 93.892873 
L 325.228677 98.796322 
L 325.854819 83.8806 
L 326.16789 85.014557 
L 326.794032 93.435016 
L 327.107103 84.701144 
L 327.420174 84.294811 
L 327.733244 86.198493 
L 328.046315 76.044123 
L 328.359386 76.410345 
L 328.985528 98.93662 
L 329.298599 85.948799 
L 329.61167 77.74341 
L 329.924741 78.473588 
L 330.237812 74.841709 
L 330.550883 85.096195 
L 330.863954 78.40072 
L 331.177025 79.376993 
L 331.490096 89.005333 
L 331.803166 75.754106 
L 332.116237 77.902304 
L 332.429308 86.986494 
L 332.742379 86.310493 
L 333.05545 102.373339 
L 333.368521 73.583699 
L 333.681592 75.795852 
L 333.994663 83.408877 
L 334.307734 103.712145 
L 334.620805 88.756068 
L 335.246947 77.003968 
L 335.560018 87.698766 
L 335.873088 80.88225 
L 336.186159 76.933404 
L 336.49923 80.118934 
L 336.812301 78.634026 
L 337.125372 79.879177 
L 337.438443 78.160091 
L 337.751514 82.495049 
L 338.064585 75.73683 
L 338.377656 86.307557 
L 338.690727 81.282833 
L 339.003798 79.823682 
L 339.316869 77.289265 
L 339.62994 82.322902 
L 339.94301 75.417489 
L 340.256081 101.286221 
L 340.569152 74.31672 
L 340.882223 95.407097 
L 341.195294 85.18288 
L 341.508365 104.934432 
L 341.821436 75.445008 
L 342.134507 76.810419 
L 342.447578 89.039637 
L 342.760649 75.362313 
L 343.386791 106.537126 
L 343.699861 77.403698 
L 344.012932 78.843463 
L 344.326003 100.319442 
L 344.639074 102.88389 
L 344.952145 75.37199 
L 345.578287 90.953161 
L 345.891358 76.503639 
L 346.204429 87.149906 
L 346.5175 86.430636 
L 346.830571 101.309619 
L 347.143642 97.822984 
L 347.456713 81.898209 
L 347.769783 81.259025 
L 348.082854 104.260191 
L 348.395925 77.511824 
L 348.708996 76.14057 
L 349.022067 75.882681 
L 349.335138 74.476728 
L 349.648209 106.728481 
L 349.96128 77.530154 
L 350.274351 83.365089 
L 350.587422 85.194021 
L 350.900493 107.101274 
L 351.213564 83.137148 
L 351.526635 85.84095 
L 351.839705 96.892611 
L 352.152776 90.295117 
L 352.778918 97.219257 
L 353.091989 75.121094 
L 353.40506 96.857218 
L 353.718131 92.140821 
L 354.031202 90.142622 
L 354.344273 91.041754 
L 354.657344 88.562471 
L 354.970415 81.841049 
L 355.283486 93.569814 
L 355.596557 94.034975 
L 355.909627 93.048668 
L 356.222698 80.466898 
L 356.535769 75.520153 
L 356.84884 83.398628 
L 357.161911 84.935178 
L 357.474982 76.38911 
L 357.788053 91.96703 
L 358.101124 82.427761 
L 358.414195 105.069399 
L 359.040337 77.850262 
L 359.666478 90.191521 
L 359.979549 77.750002 
L 360.29262 82.171398 
L 360.605691 76.076359 
L 360.918762 78.491144 
L 361.231833 77.506836 
L 361.857975 87.397091 
L 362.171046 104.220701 
L 362.484117 80.441384 
L 362.797188 89.783774 
L 363.110259 76.750784 
L 363.42333 100.772822 
L 363.7364 79.997226 
L 364.049471 95.308316 
L 364.362542 81.732064 
L 364.675613 79.92857 
L 364.988684 76.439827 
L 365.301755 89.642475 
L 365.614826 85.338479 
L 365.927897 94.084985 
L 366.240968 77.617621 
L 366.554039 80.372751 
L 366.86711 87.596195 
L 367.180181 89.103251 
L 367.806322 109.782883 
L 368.119393 98.994339 
L 368.432464 95.540903 
L 368.745535 96.537398 
L 369.058606 79.661897 
L 369.371677 91.128784 
L 369.684748 90.141768 
L 370.31089 81.75492 
L 370.623961 81.242462 
L 370.937032 79.653514 
L 371.250103 75.128314 
L 371.563173 85.250914 
L 371.876244 81.724316 
L 372.189315 93.632201 
L 372.502386 89.01872 
L 372.815457 90.554848 
L 373.128528 86.628936 
L 373.441599 84.642327 
L 373.75467 84.272982 
L 374.067741 82.71147 
L 374.380812 76.205989 
L 374.693883 86.717142 
L 375.006954 89.115799 
L 375.320025 80.062254 
L 375.633095 77.177272 
L 376.259237 92.059635 
L 376.572308 89.983305 
L 376.885379 100.995331 
L 377.19845 76.86065 
L 377.511521 77.215516 
L 377.824592 77.738791 
L 378.137663 77.784023 
L 378.450734 76.884148 
L 378.763805 79.506602 
L 379.076876 107.720441 
L 379.389947 76.942606 
L 379.703017 77.156519 
L 380.016088 76.255613 
L 380.64223 78.332636 
L 380.955301 76.201139 
L 381.268372 94.056556 
L 381.581443 75.873079 
L 381.894514 94.768033 
L 382.207585 77.843266 
L 382.520656 96.507817 
L 382.833727 77.031529 
L 383.146798 88.795143 
L 383.459869 88.036962 
L 383.772939 84.492852 
L 384.08601 88.126602 
L 384.399081 97.484902 
L 384.712152 90.30421 
L 385.025223 105.956942 
L 385.338294 102.182124 
L 385.651365 80.285335 
L 385.964436 100.365825 
L 386.277507 91.134874 
L 386.590578 98.916698 
L 386.903649 127.764322 
L 387.21672 92.275128 
L 387.52979 136.721698 
L 387.842861 103.325301 
L 388.155932 105.626588 
L 388.469003 97.435981 
L 388.782074 99.805452 
L 389.095145 97.330819 
L 389.408216 99.168908 
L 389.721287 90.941877 
L 390.034358 134.6755 
L 390.347429 94.593454 
L 390.6605 85.606589 
L 390.973571 82.540756 
L 391.286642 93.304509 
L 391.599712 87.541345 
L 391.912783 76.797986 
L 392.225854 98.728845 
L 392.538925 76.911507 
L 392.851996 93.908169 
L 393.165067 97.0535 
L 393.478138 85.242783 
L 393.791209 85.230282 
L 394.10428 83.98463 
L 394.417351 100.617611 
L 394.730422 92.470611 
L 395.043493 79.613515 
L 395.356564 79.714768 
L 395.669634 97.785507 
L 395.982705 83.515009 
L 396.295776 84.597569 
L 396.608847 81.505167 
L 397.234989 96.247116 
L 397.54806 85.604973 
L 398.174202 74.622889 
L 398.487273 85.429037 
L 398.487273 85.429037 
" style="fill:none;stroke:#ff0000;stroke-linecap:square;stroke-width:1.5;"/>
   </g>
   <g id="line2d_24">
    <path clip-path="url(#p3d70b28ed0)" d="M 73.832727 87.918184 
L 74.145798 76.09369 
L 74.458869 75.384583 
L 74.77194 80.397261 
L 75.085011 77.110279 
L 75.398082 75.297396 
L 75.711153 75.648446 
L 76.024224 81.653736 
L 76.337295 76.994541 
L 76.650366 79.382964 
L 76.963436 79.690175 
L 77.276507 77.659725 
L 77.902649 82.46292 
L 78.21572 80.246923 
L 78.528791 81.661475 
L 78.841862 77.70091 
L 79.154933 78.320193 
L 80.094146 75.210802 
L 80.407217 76.105933 
L 80.720288 83.506424 
L 81.033358 74.350387 
L 81.346429 77.314238 
L 81.6595 76.992262 
L 81.972571 75.665448 
L 82.285642 76.38639 
L 82.598713 80.865198 
L 82.911784 72.66592 
L 83.224855 76.286784 
L 83.537926 78.405323 
L 83.850997 75.972817 
L 84.164068 75.654125 
L 84.477139 78.72999 
L 85.10328 73.510465 
L 85.729422 72.963949 
L 86.042493 76.053939 
L 86.355564 74.105811 
L 86.668635 76.387256 
L 86.981706 75.636751 
L 87.294777 76.337234 
L 87.607848 73.64316 
L 87.920919 73.410922 
L 88.547061 77.634206 
L 88.860131 74.157165 
L 89.486273 76.246646 
L 89.799344 83.321378 
L 90.112415 78.735842 
L 90.425486 78.702954 
L 90.738557 74.663519 
L 91.051628 75.259297 
L 91.67777 80.526888 
L 91.990841 76.143061 
L 92.303912 75.691211 
L 92.616983 82.63251 
L 92.930053 76.11135 
L 93.243124 80.091144 
L 93.869266 72.9859 
L 94.182337 76.870035 
L 94.495408 71.95926 
L 94.808479 76.52806 
L 95.12155 74.594926 
L 95.434621 71.885826 
L 96.060763 81.136571 
L 96.686905 74.509094 
L 96.999975 78.053173 
L 97.313046 77.046024 
L 97.626117 74.151289 
L 97.939188 75.535684 
L 98.252259 74.706744 
L 98.56533 79.333006 
L 98.878401 75.370691 
L 99.191472 74.584194 
L 99.504543 74.137692 
L 99.817614 74.246693 
L 100.130685 73.504946 
L 100.443756 76.367459 
L 100.756827 76.696504 
L 101.069897 74.908832 
L 101.382968 77.297485 
L 102.00911 78.820251 
L 102.322181 77.348117 
L 102.635252 78.729855 
L 102.948323 74.638926 
L 103.261394 75.418178 
L 103.574465 74.581654 
L 103.887536 75.302955 
L 104.200607 74.64742 
L 104.513678 75.67649 
L 104.826748 74.907436 
L 105.139819 72.257707 
L 105.45289 79.69144 
L 105.765961 74.425074 
L 106.079032 76.20922 
L 106.392103 73.127722 
L 106.705174 75.074895 
L 107.018245 73.14426 
L 107.331316 76.313475 
L 107.644387 73.073202 
L 107.957458 74.206474 
L 108.270529 73.991661 
L 108.5836 73.522139 
L 108.89667 76.342979 
L 109.209741 76.879882 
L 109.522812 77.042116 
L 109.835883 76.249284 
L 110.148954 73.883305 
L 110.462025 75.047011 
L 110.775096 72.505504 
L 111.088167 72.965573 
L 111.401238 77.421871 
L 111.714309 78.091154 
L 112.340451 73.118939 
L 112.653522 75.756558 
L 112.966592 72.00673 
L 113.279663 76.232004 
L 113.592734 77.51745 
L 114.218876 73.507148 
L 114.845018 77.476218 
L 115.158089 74.012801 
L 115.784231 71.028328 
L 116.097302 73.373273 
L 116.410373 74.00255 
L 116.723443 72.531029 
L 117.036514 75.613416 
L 117.349585 76.643584 
L 117.662656 72.592735 
L 117.975727 75.294229 
L 118.288798 73.979824 
L 118.601869 75.224755 
L 118.91494 73.931869 
L 119.228011 74.021316 
L 119.541082 74.971862 
L 119.854153 73.296766 
L 120.167224 73.245575 
L 120.480295 74.534509 
L 120.793365 73.107508 
L 121.419507 78.346447 
L 121.732578 73.645721 
L 122.35872 72.659312 
L 122.671791 75.377425 
L 122.984862 71.364065 
L 123.297933 76.077441 
L 123.611004 74.205028 
L 123.924075 71.337334 
L 124.237146 72.52854 
L 124.550217 79.097405 
L 124.863287 75.84663 
L 125.176358 74.754578 
L 125.489429 78.154721 
L 125.8025 74.53442 
L 126.115571 76.721854 
L 126.428642 74.480387 
L 126.741713 77.770129 
L 127.054784 77.683952 
L 127.367855 74.701196 
L 127.680926 87.289747 
L 127.993997 80.542424 
L 128.307068 78.473975 
L 128.620139 78.890587 
L 128.933209 78.836506 
L 129.24628 78.215867 
L 129.559351 82.239415 
L 129.872422 77.48448 
L 130.185493 79.450944 
L 130.498564 77.456362 
L 130.811635 79.012879 
L 131.124706 81.19984 
L 131.437777 78.339099 
L 131.750848 77.518608 
L 132.063919 73.961681 
L 132.37699 82.473524 
L 132.69006 77.923512 
L 133.003131 78.167654 
L 133.316202 75.454968 
L 133.629273 77.187654 
L 133.942344 84.362844 
L 134.255415 74.746903 
L 134.568486 74.023387 
L 134.881557 76.603981 
L 135.507699 76.678325 
L 135.82077 81.299954 
L 136.133841 75.855253 
L 136.759982 79.759068 
L 137.073053 76.680748 
L 137.386124 79.319332 
L 137.699195 74.104741 
L 138.012266 75.91269 
L 138.325337 79.611679 
L 138.638408 73.537599 
L 139.26455 81.168522 
L 139.577621 78.828866 
L 139.890692 84.471143 
L 140.203763 77.944528 
L 140.516834 76.610932 
L 141.142975 77.946062 
L 141.456046 82.605212 
L 141.769117 79.209396 
L 142.082188 78.759939 
L 142.395259 76.657104 
L 142.70833 75.366051 
L 143.021401 77.495704 
L 143.334472 82.461389 
L 143.647543 73.988825 
L 143.960614 75.256393 
L 144.273685 74.723359 
L 144.586756 77.165896 
L 144.899826 75.01037 
L 145.212897 74.091798 
L 145.525968 78.031827 
L 145.839039 71.744974 
L 146.15211 72.722599 
L 146.465181 77.392786 
L 147.091323 75.282974 
L 147.404394 74.744481 
L 147.717465 77.867142 
L 148.030536 74.197077 
L 148.343607 76.776527 
L 148.656677 74.442014 
L 148.969748 76.914625 
L 149.282819 75.618977 
L 149.59589 81.251314 
L 149.908961 76.104778 
L 150.222032 73.472056 
L 150.535103 74.634142 
L 150.848174 73.641407 
L 151.161245 73.453496 
L 151.474316 73.456429 
L 151.787387 78.245524 
L 152.413529 72.522587 
L 152.726599 73.675276 
L 153.03967 73.551927 
L 153.352741 72.874299 
L 153.978883 75.345507 
L 154.291954 75.329384 
L 154.605025 74.163886 
L 154.918096 75.273632 
L 155.231167 74.018098 
L 155.544238 73.394724 
L 155.857309 77.085335 
L 156.17038 76.034576 
L 156.483451 75.688428 
L 156.796521 74.550927 
L 157.109592 80.997985 
L 157.422663 74.229009 
L 157.735734 73.182543 
L 158.048805 76.484418 
L 158.361876 75.588262 
L 158.674947 76.766749 
L 158.988018 77.074709 
L 159.301089 79.36085 
L 159.61416 80.054138 
L 159.927231 78.271168 
L 160.240302 78.700868 
L 160.553372 78.891361 
L 160.866443 75.814126 
L 161.179514 79.702035 
L 161.492585 77.845065 
L 161.805656 77.785269 
L 162.118727 78.430471 
L 162.431798 75.215025 
L 162.744869 78.49022 
L 163.05794 80.072185 
L 163.371011 78.275587 
L 163.684082 89.323631 
L 163.997153 81.688345 
L 164.310224 82.191414 
L 164.623294 84.408475 
L 164.936365 78.779267 
L 165.249436 76.228381 
L 165.562507 75.298854 
L 166.188649 91.887789 
L 166.50172 75.973274 
L 166.814791 79.565243 
L 167.127862 90.345506 
L 167.440933 79.879047 
L 167.754004 76.380439 
L 168.067075 78.003332 
L 168.380146 75.47253 
L 169.006287 77.495165 
L 169.319358 79.243631 
L 169.632429 75.889491 
L 170.258571 80.802821 
L 170.571642 80.587491 
L 170.884713 82.443832 
L 171.197784 80.263453 
L 171.510855 82.697087 
L 171.823926 76.656674 
L 172.136997 78.969085 
L 172.450068 74.833483 
L 172.763138 76.91601 
L 173.076209 75.767334 
L 173.38928 78.574877 
L 173.702351 72.478481 
L 174.015422 79.080356 
L 174.328493 77.316685 
L 174.641564 77.785104 
L 174.954635 74.867783 
L 175.267706 77.702417 
L 175.580777 78.360151 
L 175.893848 83.570488 
L 176.206919 78.737338 
L 176.519989 77.323396 
L 176.83306 77.126942 
L 177.146131 80.657463 
L 177.459202 74.639149 
L 177.772273 79.582855 
L 178.085344 75.446593 
L 178.711486 77.493771 
L 179.024557 77.489176 
L 179.650699 85.552652 
L 179.96377 83.781166 
L 180.276841 83.451028 
L 180.589911 76.606339 
L 180.902982 89.484335 
L 181.842195 76.757179 
L 182.155266 77.140647 
L 182.468337 78.265135 
L 182.781408 86.560144 
L 183.094479 77.250256 
L 183.40755 79.052315 
L 183.720621 76.616716 
L 184.033692 77.04572 
L 184.346763 75.479438 
L 184.972904 79.631698 
L 185.285975 79.816725 
L 185.599046 82.891377 
L 185.912117 78.695461 
L 186.225188 78.055828 
L 186.538259 76.117476 
L 186.85133 76.290547 
L 187.164401 104.333606 
L 187.477472 76.423167 
L 187.790543 77.135418 
L 188.103614 79.129974 
L 188.416684 76.11566 
L 188.729755 76.704951 
L 189.042826 75.503852 
L 189.355897 81.22917 
L 189.668968 78.630835 
L 189.982039 79.528454 
L 190.29511 87.911068 
L 190.608181 91.17433 
L 190.921252 80.36754 
L 191.234323 76.433772 
L 191.547394 87.869569 
L 191.860465 81.566962 
L 192.173536 81.143801 
L 192.486606 82.689635 
L 192.799677 75.312806 
L 193.112748 82.050353 
L 193.425819 80.918246 
L 193.73889 83.287986 
L 194.051961 82.095762 
L 194.365032 76.813586 
L 194.678103 80.855215 
L 195.304245 77.794862 
L 195.617316 78.973877 
L 195.930387 82.056965 
L 196.243458 83.583191 
L 196.556528 86.911786 
L 196.869599 80.409474 
L 197.18267 78.360023 
L 197.495741 79.043229 
L 197.808812 84.072692 
L 198.121883 76.450187 
L 198.434954 75.017695 
L 198.748025 79.31221 
L 199.061096 76.48459 
L 199.374167 75.87808 
L 199.687238 95.992481 
L 200.000309 80.262528 
L 200.31338 80.853464 
L 200.62645 77.879486 
L 200.939521 77.93683 
L 201.252592 80.039156 
L 201.565663 74.575776 
L 201.878734 73.880191 
L 202.191805 75.092288 
L 202.504876 86.699214 
L 202.817947 74.858871 
L 203.131018 73.758001 
L 203.444089 77.453297 
L 203.75716 76.031738 
L 204.070231 85.563404 
L 204.383301 77.9457 
L 204.696372 77.598517 
L 205.009443 96.161241 
L 205.322514 80.347974 
L 205.635585 79.672992 
L 205.948656 78.097474 
L 206.261727 75.78187 
L 206.574798 74.651781 
L 207.20094 76.955429 
L 207.514011 77.17383 
L 207.827082 75.082255 
L 208.140153 80.436709 
L 208.453223 75.152669 
L 208.766294 79.019192 
L 209.079365 76.34646 
L 209.392436 83.216577 
L 210.018578 76.019133 
L 210.331649 75.866706 
L 210.64472 76.368356 
L 210.957791 76.525606 
L 211.270862 75.591104 
L 211.583933 78.197658 
L 211.897004 77.161437 
L 212.210075 79.634651 
L 212.523145 83.615332 
L 212.836216 76.123984 
L 213.149287 79.842602 
L 213.775429 72.617406 
L 214.0885 80.465954 
L 214.401571 77.086921 
L 214.714642 77.748166 
L 215.027713 77.828572 
L 215.340784 73.456104 
L 215.653855 76.350133 
L 215.966926 72.559039 
L 216.593067 77.899524 
L 216.906138 73.783619 
L 217.219209 73.523642 
L 217.53228 73.594901 
L 217.845351 77.92065 
L 218.158422 75.019962 
L 218.471493 77.503396 
L 219.097635 74.071723 
L 219.410706 75.749858 
L 219.723777 81.817003 
L 220.036848 77.363555 
L 220.349918 83.310281 
L 220.662989 75.608063 
L 220.97606 79.150533 
L 221.289131 77.956759 
L 221.602202 79.15076 
L 221.915273 74.850052 
L 222.228344 77.400934 
L 222.541415 73.768868 
L 222.854486 79.141886 
L 223.167557 81.743901 
L 223.480628 78.772535 
L 223.793699 78.369022 
L 224.10677 75.716874 
L 224.41984 75.005008 
L 224.732911 75.666299 
L 225.045982 74.698629 
L 225.359053 78.819633 
L 225.672124 75.400146 
L 225.985195 76.7938 
L 226.298266 74.137944 
L 226.611337 75.366491 
L 226.924408 74.227685 
L 227.237479 76.781949 
L 227.55055 76.335001 
L 227.863621 76.36956 
L 228.176692 79.632719 
L 228.489762 75.274189 
L 228.802833 75.560397 
L 229.428975 75.075516 
L 229.742046 77.107339 
L 230.055117 74.00616 
L 230.368188 79.04539 
L 230.681259 75.786129 
L 230.99433 77.51622 
L 231.307401 81.416334 
L 231.620472 77.780117 
L 231.933543 75.819372 
L 232.246613 78.138728 
L 232.559684 75.488473 
L 232.872755 75.245338 
L 233.185826 83.682048 
L 233.498897 78.329295 
L 233.811968 81.159444 
L 234.125039 75.364007 
L 234.43811 74.224229 
L 234.751181 77.65273 
L 235.064252 78.104421 
L 235.377323 73.15657 
L 235.690394 78.993758 
L 236.003465 75.085997 
L 236.316535 74.478488 
L 236.629606 78.109394 
L 236.942677 77.334174 
L 237.255748 80.662431 
L 237.568819 80.550975 
L 237.88189 77.793437 
L 238.194961 79.268239 
L 238.508032 77.897544 
L 238.821103 78.62458 
L 239.447245 74.234495 
L 239.760316 80.819059 
L 240.073387 74.29664 
L 240.386457 74.933154 
L 240.699528 75.948005 
L 241.012599 81.584794 
L 241.32567 78.666837 
L 241.638741 80.256459 
L 241.951812 73.661424 
L 242.264883 77.069567 
L 242.577954 72.766887 
L 242.891025 74.494661 
L 243.204096 77.598331 
L 243.517167 79.113946 
L 243.830238 75.08126 
L 244.143308 75.370275 
L 244.456379 78.008297 
L 245.082521 80.37862 
L 245.395592 79.699517 
L 245.708663 77.194001 
L 246.021734 76.425878 
L 246.334805 76.464202 
L 246.647876 73.641555 
L 246.960947 76.868659 
L 247.274018 74.610225 
L 247.587089 74.548634 
L 247.90016 77.732641 
L 248.21323 74.903504 
L 248.526301 73.98742 
L 248.839372 75.115835 
L 249.152443 75.070246 
L 249.465514 77.095285 
L 249.778585 76.337545 
L 250.091656 77.893726 
L 250.404727 74.972416 
L 251.030869 73.502474 
L 251.34394 77.141083 
L 251.657011 77.332179 
L 251.970082 73.052625 
L 252.283152 80.877439 
L 252.596223 72.726464 
L 252.909294 75.316393 
L 253.222365 73.836775 
L 253.535436 80.765717 
L 253.848507 72.71305 
L 254.161578 77.983897 
L 254.474649 75.454572 
L 254.78772 75.230562 
L 255.100791 75.175386 
L 255.413862 77.545448 
L 255.726933 77.435763 
L 256.040004 81.122357 
L 256.353074 74.244152 
L 256.666145 73.328119 
L 256.979216 74.526741 
L 257.292287 77.928817 
L 257.605358 73.425368 
L 257.918429 73.401495 
L 258.2315 74.361509 
L 258.544571 73.957992 
L 258.857642 75.829884 
L 259.170713 73.123883 
L 259.483784 73.827391 
L 259.796855 73.255639 
L 260.109925 82.610334 
L 260.422996 75.055546 
L 260.736067 74.131416 
L 261.049138 85.601923 
L 261.362209 77.991105 
L 261.67528 74.510338 
L 261.988351 76.055658 
L 262.301422 74.541079 
L 262.614493 78.483409 
L 262.927564 73.656407 
L 263.553706 76.812004 
L 263.866777 76.69688 
L 264.179847 77.879167 
L 264.805989 76.553287 
L 265.11906 80.727844 
L 265.432131 76.365893 
L 265.745202 75.364002 
L 266.058273 76.54662 
L 266.371344 74.970535 
L 266.684415 79.234694 
L 266.997486 76.98961 
L 267.310557 78.163749 
L 267.623628 72.200444 
L 268.249769 80.367606 
L 268.56284 79.444846 
L 268.875911 76.069281 
L 269.188982 76.037921 
L 269.502053 81.400733 
L 269.815124 77.813533 
L 270.128195 81.550785 
L 270.754337 78.966436 
L 271.067408 75.429915 
L 271.380479 74.168229 
L 271.69355 77.473275 
L 272.00662 76.409967 
L 272.319691 82.392976 
L 272.632762 79.462711 
L 272.945833 77.890308 
L 273.258904 79.854039 
L 273.571975 80.66221 
L 273.885046 73.5252 
L 274.511188 76.620477 
L 274.824259 74.615632 
L 275.13733 78.313386 
L 275.450401 77.46428 
L 275.763472 72.10382 
L 276.076542 76.48751 
L 276.389613 75.783654 
L 276.702684 74.631736 
L 277.015755 80.843269 
L 277.328826 77.177842 
L 277.641897 77.088494 
L 277.954968 81.042144 
L 278.268039 77.765775 
L 278.58111 78.058544 
L 278.894181 72.762302 
L 279.207252 80.732317 
L 279.833394 73.632559 
L 280.146464 74.633799 
L 280.459535 78.179956 
L 280.772606 75.367697 
L 281.085677 75.151127 
L 281.398748 75.672264 
L 281.711819 76.580141 
L 282.02489 87.824729 
L 282.337961 78.265356 
L 282.651032 81.893997 
L 282.964103 75.231431 
L 283.590245 77.211248 
L 283.903316 73.943425 
L 284.216386 79.689686 
L 284.529457 74.804834 
L 284.842528 80.62713 
L 285.155599 74.116557 
L 285.46867 75.648846 
L 285.781741 78.46922 
L 286.094812 84.201415 
L 286.407883 78.210233 
L 286.720954 79.450876 
L 287.034025 83.46056 
L 287.347096 77.582141 
L 287.660167 80.355875 
L 287.973237 80.615888 
L 288.286308 84.319109 
L 288.599379 79.179298 
L 288.91245 82.063993 
L 289.225521 81.480065 
L 289.538592 76.499528 
L 289.851663 79.235207 
L 290.164734 75.226976 
L 290.477805 77.697541 
L 290.790876 76.018627 
L 291.417018 79.316662 
L 291.730089 84.947965 
L 292.043159 75.399612 
L 292.35623 75.427067 
L 292.669301 78.945284 
L 292.982372 75.43727 
L 293.295443 78.289785 
L 293.921585 74.189327 
L 294.234656 73.858413 
L 294.547727 74.013351 
L 294.860798 73.167097 
L 295.173869 73.632888 
L 295.48694 80.694074 
L 295.800011 76.058842 
L 296.113081 75.519428 
L 296.426152 77.325289 
L 296.739223 75.446395 
L 297.052294 78.245247 
L 297.365365 76.266188 
L 297.678436 79.136903 
L 297.991507 78.539309 
L 298.304578 79.96475 
L 298.93072 74.284266 
L 299.243791 75.39922 
L 299.556862 79.069568 
L 299.869932 74.66535 
L 300.183003 82.644959 
L 300.496074 80.051245 
L 300.809145 74.621646 
L 301.122216 75.373448 
L 301.435287 76.62098 
L 301.748358 74.555563 
L 302.061429 77.25813 
L 302.3745 75.949234 
L 302.687571 75.489856 
L 303.313713 77.410822 
L 303.626784 78.471165 
L 303.939854 76.714521 
L 304.252925 78.066647 
L 304.565996 71.540041 
L 304.879067 82.466761 
L 305.192138 73.740263 
L 305.505209 77.744591 
L 305.81828 73.762338 
L 306.131351 76.847723 
L 306.757493 76.620578 
L 307.070564 74.442935 
L 307.383635 78.600727 
L 307.696706 76.669284 
L 308.009776 76.146199 
L 308.322847 73.88406 
L 308.635918 78.762058 
L 309.26206 74.998188 
L 309.575131 74.978462 
L 309.888202 78.282637 
L 310.201273 75.375126 
L 310.514344 75.394478 
L 310.827415 78.46983 
L 311.140486 74.787945 
L 311.453557 76.837638 
L 311.766628 74.338757 
L 312.079698 78.556749 
L 312.392769 73.805259 
L 312.70584 74.422479 
L 313.018911 72.986941 
L 313.331982 73.910888 
L 313.645053 73.418212 
L 313.958124 75.756482 
L 314.584266 73.152147 
L 314.897337 72.977108 
L 315.210408 73.884549 
L 315.523479 75.874236 
L 315.836549 73.103305 
L 316.14962 74.19596 
L 316.462691 76.275844 
L 316.775762 75.343704 
L 317.088833 73.998334 
L 317.401904 73.823965 
L 317.714975 77.203137 
L 318.028046 77.402235 
L 318.341117 78.276856 
L 318.654188 74.50523 
L 319.28033 80.04424 
L 319.593401 74.914369 
L 319.906471 78.730929 
L 320.219542 73.408186 
L 320.532613 75.443385 
L 320.845684 79.449851 
L 321.158755 75.597259 
L 321.471826 75.341174 
L 321.784897 75.663851 
L 322.097968 73.880185 
L 322.411039 75.860665 
L 322.72411 73.90879 
L 323.037181 73.720423 
L 323.350252 73.923835 
L 323.663323 80.627056 
L 323.976393 75.408741 
L 324.289464 73.944481 
L 324.602535 78.04445 
L 324.915606 75.602355 
L 325.228677 75.777913 
L 325.541748 78.533011 
L 325.854819 74.495668 
L 326.16789 75.485958 
L 326.480961 74.208393 
L 326.794032 76.603911 
L 327.107103 73.44956 
L 327.420174 75.792679 
L 327.733244 74.870799 
L 328.046315 72.621718 
L 328.359386 73.125962 
L 328.985528 78.321284 
L 329.298599 76.429841 
L 329.61167 73.350562 
L 329.924741 72.267497 
L 330.237812 72.536286 
L 330.550883 75.638279 
L 330.863954 74.140375 
L 331.177025 74.256676 
L 331.490096 75.794241 
L 331.803166 74.00798 
L 332.429308 75.64342 
L 332.742379 76.39252 
L 333.05545 75.795549 
L 333.368521 72.412802 
L 333.681592 73.572268 
L 334.307734 78.910707 
L 334.620805 76.873811 
L 334.933876 76.2403 
L 335.246947 73.088276 
L 335.560018 75.04481 
L 335.873088 73.619076 
L 336.186159 73.061786 
L 336.49923 72.863006 
L 336.812301 73.822769 
L 337.125372 73.846348 
L 337.438443 74.283587 
L 337.751514 73.5336 
L 338.064585 73.088359 
L 338.377656 77.051069 
L 338.690727 74.016847 
L 339.003798 73.812687 
L 339.316869 73.418486 
L 339.62994 75.492999 
L 339.94301 72.960082 
L 340.256081 76.695808 
L 340.569152 71.326282 
L 340.882223 75.39913 
L 341.195294 74.82934 
L 341.508365 78.164884 
L 341.821436 72.724834 
L 342.134507 73.951735 
L 342.447578 74.119934 
L 342.760649 72.587317 
L 343.07372 74.598921 
L 343.386791 78.444015 
L 343.699861 72.402021 
L 344.012932 72.235052 
L 344.326003 79.519717 
L 344.639074 77.750375 
L 344.952145 72.821604 
L 345.578287 75.597327 
L 345.891358 72.10403 
L 346.204429 77.954841 
L 346.5175 75.088098 
L 346.830571 78.0193 
L 347.143642 79.643089 
L 347.456713 74.596779 
L 347.769783 73.30154 
L 348.082854 74.778413 
L 348.395925 72.551716 
L 348.708996 72.026659 
L 349.335138 72.506675 
L 349.648209 76.576318 
L 349.96128 73.552431 
L 350.274351 73.782733 
L 350.587422 73.292428 
L 350.900493 76.526883 
L 351.213564 75.473625 
L 351.839705 76.257083 
L 352.152776 74.204432 
L 352.465847 76.432367 
L 352.778918 74.872459 
L 353.091989 71.980777 
L 353.40506 76.026934 
L 353.718131 74.948009 
L 354.031202 76.047996 
L 354.344273 76.722166 
L 354.657344 76.257967 
L 354.970415 74.593532 
L 355.283486 76.478134 
L 355.596557 77.381287 
L 355.909627 77.211307 
L 356.535769 73.451429 
L 357.161911 76.459803 
L 357.474982 74.388217 
L 357.788053 76.272624 
L 358.101124 75.778005 
L 358.414195 77.888573 
L 359.040337 73.632142 
L 359.353408 74.8663 
L 359.666478 76.953138 
L 359.979549 74.034965 
L 360.29262 74.156801 
L 360.605691 73.50841 
L 360.918762 73.454256 
L 361.231833 75.408908 
L 361.544904 76.077821 
L 361.857975 77.122367 
L 362.171046 76.978959 
L 362.484117 75.299335 
L 362.797188 76.251639 
L 363.110259 74.386068 
L 363.42333 77.494929 
L 363.7364 73.760656 
L 364.049471 78.53768 
L 364.362542 74.846549 
L 364.675613 73.776798 
L 364.988684 74.38009 
L 365.301755 76.60376 
L 365.614826 75.785823 
L 365.927897 76.839517 
L 366.240968 74.542353 
L 366.554039 74.036979 
L 366.86711 75.069536 
L 367.180181 77.406841 
L 367.493252 78.69342 
L 367.806322 81.096818 
L 368.119393 77.460683 
L 368.432464 76.39788 
L 368.745535 78.982456 
L 369.058606 75.01531 
L 369.371677 77.032202 
L 369.684748 78.094297 
L 369.997819 73.920445 
L 370.31089 71.986314 
L 370.937032 74.885662 
L 371.250103 72.966302 
L 371.563173 74.83111 
L 371.876244 74.20938 
L 372.189315 77.616777 
L 372.502386 77.452546 
L 372.815457 76.265089 
L 373.128528 73.838816 
L 373.441599 73.574099 
L 373.75467 75.38063 
L 374.067741 75.092915 
L 374.380812 70.798311 
L 374.693883 77.355051 
L 375.320025 72.925982 
L 375.633095 73.157788 
L 375.946166 76.488149 
L 376.259237 76.411586 
L 376.572308 75.952803 
L 376.885379 80.06275 
L 377.19845 73.901913 
L 377.511521 74.112115 
L 377.824592 75.835793 
L 378.137663 74.007983 
L 378.450734 75.131599 
L 378.763805 75.556038 
L 379.076876 77.551543 
L 379.389947 74.481817 
L 380.016088 75.170887 
L 380.329159 74.276382 
L 380.64223 75.012938 
L 380.955301 73.539077 
L 381.268372 76.507896 
L 381.581443 74.964313 
L 381.894514 77.114985 
L 382.207585 75.482562 
L 382.520656 79.074939 
L 382.833727 74.552235 
L 383.146798 76.964309 
L 383.772939 75.773936 
L 384.399081 78.645965 
L 384.712152 76.208297 
L 385.025223 85.962265 
L 385.651365 76.437886 
L 385.964436 81.501325 
L 386.277507 79.324138 
L 386.590578 80.683213 
L 386.903649 92.193767 
L 387.21672 78.784409 
L 387.52979 91.754092 
L 387.842861 88.867443 
L 388.155932 93.837923 
L 388.469003 90.805192 
L 388.782074 90.06599 
L 389.408216 89.072709 
L 389.721287 83.280242 
L 390.034358 91.575509 
L 390.347429 82.186033 
L 390.973571 77.230717 
L 391.286642 75.588167 
L 391.599712 74.786505 
L 391.912783 71.282674 
L 392.225854 75.993618 
L 392.538925 72.775212 
L 392.851996 73.955927 
L 393.478138 72.661622 
L 393.791209 73.418834 
L 394.10428 72.480963 
L 394.417351 75.130462 
L 394.730422 76.389292 
L 395.043493 69.291797 
L 395.669634 76.218675 
L 395.982705 72.824396 
L 396.608847 68.882371 
L 396.921918 69.952767 
L 397.234989 75.231954 
L 397.54806 69.353214 
L 397.861131 67.525657 
L 398.174202 64.958958 
L 398.487273 73.868653 
L 398.487273 73.868653 
" style="fill:none;stroke:#0000ff;stroke-linecap:square;stroke-width:1.5;"/>
   </g>
   <g id="line2d_25">
    <path clip-path="url(#p3d70b28ed0)" d="M 73.832727 71.120039 
L 74.145798 74.193798 
L 74.458869 73.226834 
L 74.77194 72.979084 
L 75.085011 74.170613 
L 75.398082 73.04819 
L 75.711153 73.149758 
L 76.024224 73.7595 
L 76.337295 73.42585 
L 76.650366 66.554825 
L 76.963436 73.321361 
L 77.276507 72.63459 
L 77.589578 70.260015 
L 77.902649 65.679693 
L 78.21572 73.632126 
L 78.528791 73.209231 
L 78.841862 71.331416 
L 79.154933 70.431937 
L 79.468004 73.121946 
L 79.781075 74.123345 
L 80.094146 73.115685 
L 80.407217 70.661425 
L 80.720288 73.659028 
L 81.033358 73.028465 
L 81.346429 73.887443 
L 81.6595 73.344175 
L 81.972571 74.412458 
L 82.285642 71.953868 
L 82.598713 74.429933 
L 82.911784 53.64121 
L 83.224855 72.891691 
L 83.537926 70.870883 
L 83.850997 71.068813 
L 84.164068 69.540321 
L 84.79021 72.374351 
L 85.10328 67.933607 
L 85.416351 66.543078 
L 85.729422 68.16125 
L 86.042493 66.83247 
L 86.355564 68.987958 
L 86.668635 67.323141 
L 86.981706 71.127147 
L 87.294777 66.826571 
L 87.607848 69.093457 
L 87.920919 66.213489 
L 88.547061 68.295456 
L 88.860131 66.123891 
L 89.173202 67.241754 
L 89.486273 67.461407 
L 89.799344 67.395393 
L 90.112415 66.89831 
L 90.425486 69.260376 
L 90.738557 69.051577 
L 91.051628 67.957965 
L 91.364699 68.434521 
L 91.67777 73.094217 
L 91.990841 71.135072 
L 92.303912 70.689088 
L 92.616983 68.860593 
L 92.930053 68.312173 
L 93.243124 70.054602 
L 93.556195 67.475425 
L 93.869266 67.265109 
L 94.182337 70.010255 
L 94.495408 66.385487 
L 94.808479 70.5985 
L 95.12155 70.481922 
L 95.434621 68.493295 
L 95.747692 70.077457 
L 96.060763 74.45921 
L 96.373834 73.726587 
L 96.686905 67.168719 
L 96.999975 67.246199 
L 97.313046 74.449516 
L 97.626117 68.341528 
L 97.939188 65.958507 
L 98.252259 68.885074 
L 98.56533 69.049905 
L 98.878401 73.515865 
L 99.191472 72.669148 
L 99.817614 66.993122 
L 100.130685 66.798426 
L 100.443756 69.87557 
L 100.756827 69.85659 
L 101.069897 69.070891 
L 101.382968 66.711305 
L 101.696039 67.004051 
L 102.00911 68.856015 
L 102.322181 73.398402 
L 102.635252 73.538656 
L 103.261394 70.028063 
L 103.574465 67.820551 
L 103.887536 70.670441 
L 104.200607 69.169229 
L 104.513678 69.125698 
L 104.826748 67.831565 
L 105.139819 68.08489 
L 105.45289 71.376833 
L 105.765961 67.122658 
L 106.079032 69.475699 
L 106.392103 66.119071 
L 106.705174 68.932922 
L 107.018245 55.386513 
L 107.331316 69.811219 
L 107.957458 67.185725 
L 108.270529 69.810224 
L 108.5836 68.053345 
L 109.209741 69.421041 
L 109.522812 66.250846 
L 109.835883 68.91828 
L 110.148954 67.40056 
L 110.462025 68.69272 
L 110.775096 59.436317 
L 111.401238 73.40952 
L 111.714309 71.593207 
L 112.02738 66.136683 
L 112.340451 66.754369 
L 112.653522 69.026484 
L 112.966592 66.325973 
L 113.279663 69.032342 
L 113.592734 66.460339 
L 113.905805 66.213694 
L 114.218876 67.579538 
L 114.531947 69.995766 
L 114.845018 68.921373 
L 115.158089 70.39183 
L 115.47116 69.717175 
L 115.784231 58.300916 
L 116.097302 68.224961 
L 116.410373 71.560659 
L 116.723443 69.77947 
L 117.036514 70.540736 
L 117.349585 70.972013 
L 117.662656 67.365328 
L 117.975727 71.980994 
L 118.288798 65.948553 
L 118.601869 57.487086 
L 118.91494 68.847558 
L 119.228011 69.775785 
L 119.541082 67.58205 
L 119.854153 68.106465 
L 120.167224 71.146257 
L 120.480295 69.717343 
L 120.793365 67.765987 
L 121.106436 69.529728 
L 121.419507 72.514844 
L 121.732578 71.247241 
L 122.045649 67.198088 
L 122.35872 55.167559 
L 122.671791 67.837032 
L 122.984862 59.805476 
L 123.297933 64.557826 
L 123.924075 67.633938 
L 124.237146 65.934644 
L 124.550217 70.705457 
L 124.863287 67.585132 
L 125.176358 67.640244 
L 125.489429 72.550309 
L 125.8025 67.013125 
L 126.115571 69.592666 
L 126.741713 68.454923 
L 127.054784 59.941415 
L 127.367855 69.487353 
L 127.680926 67.73053 
L 127.993997 69.286692 
L 128.307068 68.51774 
L 128.620139 69.228832 
L 128.933209 70.695665 
L 129.24628 67.470394 
L 129.559351 67.025596 
L 129.872422 67.244885 
L 130.185493 66.654171 
L 130.498564 66.77155 
L 130.811635 70.544988 
L 131.124706 69.432105 
L 131.437777 67.262928 
L 131.750848 68.897284 
L 132.063919 68.501177 
L 132.37699 68.409188 
L 132.69006 67.119701 
L 133.003131 69.165684 
L 133.629273 67.526764 
L 133.942344 71.538888 
L 134.255415 68.667764 
L 134.568486 69.945885 
L 134.881557 69.694419 
L 135.194628 71.993653 
L 135.507699 69.035601 
L 135.82077 68.212747 
L 136.133841 67.709969 
L 136.446912 67.767424 
L 136.759982 70.829034 
L 137.073053 67.528988 
L 137.386124 68.151402 
L 137.699195 67.988828 
L 138.012266 68.364897 
L 138.325337 66.062842 
L 138.638408 68.581756 
L 138.951479 67.639024 
L 139.26455 67.588737 
L 139.577621 72.598055 
L 139.890692 69.380688 
L 140.203763 71.552162 
L 140.516834 68.654159 
L 140.829904 68.936491 
L 141.142975 68.670281 
L 141.769117 70.088855 
L 142.082188 56.103908 
L 142.395259 69.287334 
L 142.70833 70.137998 
L 143.021401 69.764205 
L 143.334472 65.795439 
L 143.647543 66.211638 
L 143.960614 67.956506 
L 144.273685 67.658206 
L 144.586756 70.783258 
L 144.899826 68.215014 
L 145.212897 68.471535 
L 145.525968 69.375573 
L 145.839039 58.617771 
L 146.15211 65.993185 
L 146.778252 72.041923 
L 147.091323 68.088582 
L 147.404394 68.346776 
L 147.717465 70.945616 
L 148.030536 66.820426 
L 148.343607 68.995778 
L 148.656677 67.677598 
L 148.969748 69.168007 
L 149.282819 69.791279 
L 149.59589 73.081051 
L 149.908961 74.00139 
L 150.222032 69.321547 
L 150.535103 68.191634 
L 150.848174 65.656227 
L 151.161245 68.739898 
L 151.474316 66.559951 
L 151.787387 69.598894 
L 152.413529 66.215539 
L 152.726599 66.431547 
L 153.03967 67.948758 
L 153.352741 67.401511 
L 153.665812 67.803082 
L 153.978883 68.695821 
L 154.291954 67.258837 
L 154.605025 68.654277 
L 154.918096 71.564445 
L 155.231167 69.574934 
L 155.544238 68.911172 
L 155.857309 71.729861 
L 156.17038 71.04716 
L 156.483451 69.897064 
L 156.796521 70.408473 
L 157.109592 72.795761 
L 157.422663 72.024469 
L 157.735734 68.683448 
L 158.048805 74.441541 
L 158.361876 68.437704 
L 158.674947 67.611029 
L 158.988018 73.447263 
L 159.301089 68.077789 
L 159.61416 73.035008 
L 159.927231 73.156473 
L 160.240302 68.397652 
L 160.553372 73.238744 
L 160.866443 73.016837 
L 161.179514 74.760149 
L 161.492585 73.18402 
L 161.805656 74.088998 
L 162.118727 73.982609 
L 162.431798 67.81352 
L 162.744869 72.263747 
L 163.05794 71.59465 
L 163.684082 73.007911 
L 163.997153 73.263132 
L 164.310224 72.632234 
L 164.623294 68.864148 
L 164.936365 74.730062 
L 165.249436 73.471794 
L 165.562507 67.946885 
L 165.875578 73.039046 
L 166.188649 72.587621 
L 166.50172 71.198451 
L 166.814791 72.444586 
L 167.127862 67.20437 
L 167.440933 66.300135 
L 167.754004 72.243773 
L 168.067075 73.555094 
L 168.380146 71.268166 
L 168.693216 74.693671 
L 169.006287 73.350597 
L 169.319358 74.009941 
L 169.632429 72.176205 
L 169.9455 73.695374 
L 170.258571 72.256604 
L 170.571642 73.33863 
L 170.884713 75.055184 
L 171.197784 73.217438 
L 171.510855 73.599187 
L 172.136997 65.474612 
L 172.450068 67.972956 
L 172.763138 66.960608 
L 173.076209 69.902826 
L 173.38928 70.086384 
L 173.702351 68.149476 
L 174.015422 64.382428 
L 174.328493 65.264025 
L 174.641564 66.756938 
L 174.954635 68.985029 
L 175.267706 68.502875 
L 175.580777 69.346853 
L 175.893848 70.549627 
L 176.206919 67.556458 
L 176.519989 72.861251 
L 177.459202 67.68709 
L 177.772273 66.924102 
L 178.085344 67.368757 
L 178.398415 70.799438 
L 178.711486 69.226128 
L 179.024557 66.673682 
L 179.337628 70.926733 
L 179.650699 73.081799 
L 179.96377 73.210923 
L 180.276841 74.084539 
L 180.589911 72.220911 
L 180.902982 67.393274 
L 181.216053 74.260286 
L 181.529124 73.285758 
L 181.842195 73.590414 
L 182.155266 69.458203 
L 182.468337 74.208755 
L 182.781408 73.593954 
L 183.094479 70.328742 
L 183.40755 74.150501 
L 183.720621 66.456232 
L 184.033692 73.18355 
L 184.346763 73.117089 
L 184.972904 74.039534 
L 185.285975 73.736891 
L 185.599046 68.709487 
L 185.912117 67.548146 
L 186.225188 74.131128 
L 186.538259 72.727328 
L 186.85133 72.73614 
L 187.164401 74.103196 
L 187.477472 74.644643 
L 187.790543 66.19199 
L 188.103614 65.666252 
L 188.416684 73.126962 
L 188.729755 73.325828 
L 189.042826 67.106683 
L 189.355897 73.284263 
L 189.668968 69.647637 
L 189.982039 56.9806 
L 190.29511 69.692469 
L 190.608181 69.254124 
L 190.921252 67.483002 
L 191.234323 67.774338 
L 191.547394 74.491071 
L 191.860465 68.911317 
L 192.173536 72.792117 
L 192.486606 74.572936 
L 192.799677 66.573586 
L 193.112748 71.692971 
L 193.425819 69.359139 
L 193.73889 72.861935 
L 194.051961 73.297452 
L 194.365032 72.879414 
L 194.678103 74.48575 
L 194.991174 69.451401 
L 195.304245 68.100906 
L 195.617316 67.872647 
L 195.930387 69.775176 
L 196.243458 68.757661 
L 196.869599 74.913479 
L 197.18267 74.06878 
L 197.495741 72.666108 
L 197.808812 73.709351 
L 198.121883 74.006545 
L 198.434954 68.61647 
L 198.748025 73.458936 
L 199.061096 73.722173 
L 199.374167 73.687952 
L 199.687238 73.230877 
L 200.000309 72.32542 
L 200.31338 73.566205 
L 200.62645 72.548401 
L 201.252592 74.443766 
L 201.565663 67.302091 
L 201.878734 67.219425 
L 202.191805 73.800239 
L 202.817947 72.566551 
L 203.131018 65.591249 
L 203.444089 74.421919 
L 203.75716 74.708847 
L 204.070231 74.200538 
L 204.383301 72.691318 
L 204.696372 68.829302 
L 205.009443 69.562613 
L 205.322514 72.894684 
L 205.635585 68.548888 
L 205.948656 72.227947 
L 206.261727 73.63391 
L 206.574798 67.345845 
L 206.887869 67.093816 
L 207.20094 72.308062 
L 207.514011 72.676587 
L 207.827082 73.35468 
L 208.140153 72.03957 
L 208.453223 72.608921 
L 208.766294 72.333712 
L 209.705507 73.244293 
L 210.018578 73.855055 
L 210.331649 74.079736 
L 210.64472 72.477757 
L 210.957791 72.238835 
L 211.270862 69.81358 
L 211.583933 70.603154 
L 212.210075 67.484609 
L 212.523145 74.377666 
L 212.836216 74.449314 
L 213.149287 70.386525 
L 213.462358 70.005002 
L 213.775429 68.159288 
L 214.0885 69.321962 
L 214.401571 68.264522 
L 214.714642 57.103951 
L 215.027713 69.236526 
L 215.340784 66.742289 
L 215.653855 69.282504 
L 215.966926 66.393778 
L 216.279996 70.418275 
L 217.219209 67.495336 
L 217.53228 68.100906 
L 217.845351 69.121613 
L 218.158422 68.964089 
L 218.471493 69.21405 
L 218.784564 69.810585 
L 219.097635 67.992026 
L 219.410706 70.017121 
L 219.723777 69.004498 
L 220.036848 66.982754 
L 220.349918 70.821672 
L 220.662989 66.960792 
L 220.97606 69.145631 
L 221.289131 65.273963 
L 221.602202 68.316761 
L 221.915273 67.058428 
L 222.228344 69.827377 
L 222.541415 67.153526 
L 222.854486 70.81795 
L 223.167557 70.884492 
L 223.480628 69.472627 
L 223.793699 70.677001 
L 224.41984 68.983342 
L 224.732911 69.418449 
L 225.045982 68.581219 
L 225.359053 70.985227 
L 225.672124 68.174057 
L 225.985195 69.815762 
L 226.298266 69.795599 
L 226.611337 71.404216 
L 226.924408 67.054372 
L 227.237479 69.615827 
L 227.55055 68.034541 
L 228.176692 71.164913 
L 228.489762 70.661457 
L 229.115904 66.612437 
L 229.428975 67.879807 
L 229.742046 68.588999 
L 230.055117 67.985915 
L 230.368188 68.603955 
L 230.681259 68.951354 
L 230.99433 69.131257 
L 231.307401 68.351895 
L 231.620472 70.686942 
L 231.933543 54.675298 
L 232.246613 70.132513 
L 232.559684 68.911471 
L 232.872755 55.932897 
L 233.185826 72.265577 
L 233.498897 68.91857 
L 233.811968 73.565265 
L 234.125039 69.466141 
L 234.43811 69.500282 
L 234.751181 72.057416 
L 235.064252 72.601504 
L 235.377323 67.563577 
L 235.690394 71.392275 
L 236.003465 68.821939 
L 236.316535 68.72177 
L 236.629606 72.215779 
L 236.942677 70.795292 
L 237.255748 71.279513 
L 237.568819 69.189718 
L 238.194961 74.04281 
L 238.508032 65.087464 
L 238.821103 71.362423 
L 239.134174 68.532427 
L 239.447245 69.069397 
L 239.760316 72.684856 
L 240.073387 66.915566 
L 240.386457 69.024832 
L 240.699528 66.908579 
L 241.012599 71.238875 
L 241.32567 71.462452 
L 241.638741 71.044095 
L 241.951812 67.782131 
L 242.264883 70.486144 
L 242.577954 68.25161 
L 242.891025 70.163632 
L 243.204096 70.346244 
L 243.517167 72.625829 
L 243.830238 72.122729 
L 244.456379 72.097025 
L 244.76945 69.322174 
L 245.082521 73.409681 
L 245.395592 67.951134 
L 245.708663 73.361048 
L 246.021734 72.382192 
L 246.334805 67.713891 
L 246.647876 67.102164 
L 246.960947 72.306327 
L 247.274018 67.652418 
L 247.587089 68.773472 
L 247.90016 72.21465 
L 248.526301 67.034813 
L 248.839372 69.07104 
L 249.465514 67.414604 
L 249.778585 68.012565 
L 250.091656 69.162415 
L 250.404727 69.140298 
L 250.717798 68.199575 
L 251.030869 68.875523 
L 251.34394 69.053553 
L 251.657011 71.51311 
L 251.970082 69.451961 
L 252.283152 70.321429 
L 252.596223 67.704862 
L 252.909294 69.824424 
L 253.222365 69.659931 
L 253.535436 70.295882 
L 253.848507 69.545621 
L 254.161578 70.804195 
L 254.474649 69.745525 
L 254.78772 67.66905 
L 255.726933 70.767961 
L 256.040004 70.653573 
L 256.353074 69.534215 
L 256.666145 70.315761 
L 256.979216 70.531539 
L 257.292287 68.71573 
L 257.605358 68.441463 
L 257.918429 67.596683 
L 258.2315 65.026695 
L 258.544571 69.229162 
L 258.857642 69.875678 
L 259.170713 69.324547 
L 259.483784 56.261658 
L 259.796855 70.83205 
L 260.109925 70.892768 
L 260.736067 67.214779 
L 261.049138 70.942785 
L 261.362209 68.901905 
L 261.67528 68.770273 
L 262.301422 70.701028 
L 262.614493 69.686067 
L 262.927564 67.95818 
L 263.240635 69.267533 
L 263.553706 69.470234 
L 263.866777 71.357419 
L 264.179847 70.109318 
L 264.492918 67.456921 
L 264.805989 70.37464 
L 265.11906 71.486578 
L 265.432131 67.592473 
L 265.745202 70.209411 
L 266.058273 69.829404 
L 266.371344 67.561577 
L 266.684415 71.59443 
L 266.997486 71.121816 
L 267.310557 71.617721 
L 267.623628 68.497748 
L 267.936699 67.640629 
L 268.249769 72.876879 
L 268.56284 68.693072 
L 268.875911 71.882074 
L 269.188982 69.468148 
L 269.502053 69.6571 
L 269.815124 70.100631 
L 270.128195 72.721588 
L 270.441266 66.108373 
L 270.754337 70.781009 
L 271.067408 68.271867 
L 271.380479 68.60387 
L 271.69355 71.288674 
L 272.00662 71.89146 
L 272.319691 70.621256 
L 272.632762 68.526473 
L 272.945833 71.340504 
L 273.258904 70.421336 
L 273.571975 72.407884 
L 273.885046 69.728252 
L 274.198117 68.0298 
L 274.511188 70.601521 
L 274.824259 72.163007 
L 275.13733 71.468815 
L 275.450401 72.76198 
L 275.763472 68.130875 
L 276.076542 72.661522 
L 276.702684 67.283737 
L 277.015755 72.724119 
L 277.328826 71.163544 
L 277.641897 68.888641 
L 277.954968 71.229891 
L 278.268039 70.982148 
L 278.58111 72.280233 
L 278.894181 69.021315 
L 279.207252 70.107039 
L 279.520323 70.27751 
L 279.833394 67.117553 
L 280.146464 69.209738 
L 280.459535 70.356041 
L 280.772606 70.51659 
L 281.085677 67.933458 
L 281.711819 71.107645 
L 282.02489 70.976423 
L 282.337961 69.209528 
L 282.651032 69.300515 
L 282.964103 69.230124 
L 283.277174 70.429796 
L 283.590245 72.174475 
L 283.903316 68.462996 
L 284.216386 70.366253 
L 284.529457 68.891733 
L 284.842528 71.393571 
L 285.155599 67.905848 
L 285.46867 70.796123 
L 286.094812 67.390594 
L 286.407883 72.77346 
L 286.720954 70.774973 
L 287.034025 67.810081 
L 287.347096 68.46776 
L 287.660167 71.336749 
L 287.973237 55.201066 
L 288.286308 73.101518 
L 288.599379 72.779972 
L 288.91245 73.171984 
L 289.225521 72.238262 
L 289.538592 69.023373 
L 289.851663 71.185233 
L 290.164734 70.481167 
L 290.790876 72.443419 
L 291.103947 73.073192 
L 291.417018 70.8253 
L 291.730089 65.375402 
L 292.043159 70.355866 
L 292.35623 69.118652 
L 292.669301 70.341915 
L 292.982372 69.04369 
L 293.295443 72.802517 
L 293.608514 66.617881 
L 293.921585 72.22759 
L 294.234656 68.349496 
L 294.547727 71.911107 
L 294.860798 67.207308 
L 295.173869 65.015806 
L 295.48694 74.352722 
L 295.800011 71.434848 
L 296.113081 72.560216 
L 296.426152 68.845266 
L 296.739223 73.131138 
L 297.365365 67.590438 
L 297.678436 71.251974 
L 297.991507 72.766018 
L 298.304578 71.08057 
L 298.617649 71.912478 
L 298.93072 69.50376 
L 299.243791 70.194506 
L 299.556862 67.615764 
L 299.869932 67.644448 
L 300.496074 72.509838 
L 300.809145 69.265337 
L 301.122216 71.702443 
L 301.435287 69.806394 
L 301.748358 72.950148 
L 302.061429 69.320926 
L 302.3745 72.78508 
L 302.687571 66.393264 
L 303.000642 68.094681 
L 303.313713 68.23085 
L 303.626784 69.370191 
L 303.939854 69.708654 
L 304.252925 69.320495 
L 304.565996 57.60677 
L 304.879067 67.071316 
L 305.192138 68.755297 
L 305.505209 69.134569 
L 305.81828 68.434465 
L 306.131351 70.174501 
L 306.444422 70.008891 
L 306.757493 68.879526 
L 307.070564 68.773496 
L 307.383635 68.498383 
L 307.696706 67.011938 
L 308.009776 69.437731 
L 308.322847 68.848968 
L 308.635918 68.86172 
L 308.948989 71.298192 
L 309.26206 70.674301 
L 309.575131 67.949911 
L 309.888202 70.813588 
L 310.201273 70.387679 
L 310.514344 68.956579 
L 310.827415 70.80928 
L 311.140486 67.498012 
L 311.453557 68.165077 
L 311.766628 71.870436 
L 312.079698 68.893532 
L 312.392769 67.326119 
L 312.70584 68.527613 
L 313.018911 69.130099 
L 313.331982 67.94436 
L 313.645053 67.950198 
L 313.958124 65.996369 
L 314.271195 70.458241 
L 314.584266 69.471527 
L 314.897337 66.918187 
L 315.210408 67.221437 
L 315.836549 66.602011 
L 316.14962 69.424924 
L 316.462691 67.077669 
L 316.775762 70.043775 
L 317.088833 71.244072 
L 317.401904 71.590663 
L 317.714975 71.333091 
L 318.028046 68.585838 
L 318.341117 74.004079 
L 318.654188 66.073523 
L 318.967259 72.223789 
L 319.28033 70.944262 
L 319.593401 71.672086 
L 320.219542 70.194591 
L 320.532613 67.349435 
L 320.845684 72.507726 
L 321.158755 68.653475 
L 321.471826 69.393884 
L 321.784897 70.979642 
L 322.097968 68.282569 
L 322.411039 71.850439 
L 323.350252 68.199552 
L 323.663323 65.501551 
L 324.289464 71.184003 
L 324.602535 70.327334 
L 324.915606 69.037032 
L 325.228677 68.916113 
L 325.541748 69.208795 
L 325.854819 70.097105 
L 326.16789 69.28909 
L 326.480961 69.023884 
L 326.794032 67.746142 
L 327.107103 69.247269 
L 327.420174 68.484507 
L 327.733244 70.164702 
L 328.046315 69.237578 
L 328.359386 70.306008 
L 328.672457 68.679608 
L 328.985528 71.050299 
L 329.298599 71.324189 
L 329.61167 70.680537 
L 329.924741 66.835763 
L 330.237812 66.439887 
L 330.550883 71.040449 
L 330.863954 71.865935 
L 331.177025 71.595508 
L 331.490096 72.222384 
L 331.803166 71.710895 
L 332.116237 69.909055 
L 332.429308 72.971292 
L 332.742379 71.512799 
L 333.05545 57.476629 
L 333.368521 70.813987 
L 333.681592 71.033352 
L 334.307734 71.06675 
L 334.620805 71.359227 
L 334.933876 68.760479 
L 335.246947 71.551324 
L 335.560018 69.430191 
L 336.186159 70.346781 
L 336.49923 68.653616 
L 336.812301 71.163049 
L 337.125372 65.974562 
L 337.438443 71.331443 
L 337.751514 70.523204 
L 338.064585 71.038393 
L 338.377656 71.145643 
L 338.690727 71.06177 
L 339.003798 70.461182 
L 339.316869 70.954651 
L 339.62994 69.736638 
L 339.94301 69.949717 
L 340.256081 70.910028 
L 340.569152 66.277716 
L 340.882223 67.323242 
L 341.195294 67.582206 
L 341.508365 71.068872 
L 341.821436 70.322339 
L 342.134507 67.262321 
L 342.447578 70.497435 
L 342.760649 69.443136 
L 343.07372 67.037008 
L 343.386791 67.549109 
L 343.699861 68.992027 
L 344.012932 68.516094 
L 344.326003 71.949796 
L 344.639074 67.226992 
L 344.952145 69.514133 
L 345.265216 70.381916 
L 345.578287 70.147061 
L 345.891358 68.562476 
L 346.204429 71.999713 
L 346.5175 71.347134 
L 346.830571 70.336855 
L 347.143642 72.825489 
L 347.769783 69.669377 
L 348.082854 70.305886 
L 348.395925 67.578672 
L 348.708996 67.168325 
L 349.022067 70.335491 
L 349.335138 69.634013 
L 349.648209 69.746435 
L 349.96128 68.122557 
L 350.274351 69.315402 
L 350.587422 69.616794 
L 350.900493 66.984441 
L 351.213564 70.945593 
L 351.526635 70.176296 
L 351.839705 67.722506 
L 352.465847 67.447422 
L 352.778918 69.630185 
L 353.091989 70.007956 
L 353.40506 68.246383 
L 353.718131 67.656475 
L 354.031202 67.94593 
L 354.344273 71.506106 
L 354.657344 67.888144 
L 354.970415 70.930707 
L 355.283486 70.880965 
L 355.596557 71.420073 
L 355.909627 70.583178 
L 356.222698 71.79379 
L 356.535769 70.72823 
L 356.84884 70.838334 
L 357.161911 72.433893 
L 357.474982 72.482123 
L 358.101124 68.130953 
L 358.414195 66.170896 
L 358.727266 67.942799 
L 359.040337 66.103287 
L 359.353408 67.131859 
L 359.666478 73.608115 
L 359.979549 71.787666 
L 360.29262 68.121151 
L 360.605691 72.019062 
L 360.918762 68.304644 
L 361.231833 73.631746 
L 362.171046 67.229671 
L 362.484117 72.369077 
L 362.797188 70.847527 
L 363.42333 69.815547 
L 363.7364 66.327486 
L 364.049471 66.453562 
L 364.362542 71.911765 
L 364.675613 66.039265 
L 364.988684 70.981025 
L 365.301755 70.685554 
L 365.614826 70.229721 
L 365.927897 67.645741 
L 366.240968 67.465375 
L 366.554039 70.405004 
L 366.86711 67.97726 
L 367.180181 72.967829 
L 367.493252 68.977403 
L 367.806322 70.285278 
L 368.119393 65.905032 
L 368.432464 72.380141 
L 368.745535 70.09904 
L 369.058606 72.843857 
L 369.684748 70.826463 
L 369.997819 67.225932 
L 370.31089 66.602559 
L 370.623961 67.264152 
L 370.937032 71.186167 
L 371.250103 70.73735 
L 371.563173 70.621703 
L 371.876244 69.436299 
L 372.189315 69.155678 
L 372.502386 70.704635 
L 373.128528 67.418626 
L 373.441599 69.625132 
L 373.75467 68.650996 
L 374.067741 68.864763 
L 374.380812 57.45502 
L 374.693883 70.724682 
L 375.320025 69.413741 
L 375.633095 68.395252 
L 375.946166 69.706291 
L 376.259237 72.243667 
L 376.572308 68.520711 
L 376.885379 71.307315 
L 377.19845 69.149057 
L 377.511521 70.97446 
L 377.824592 74.005092 
L 378.137663 66.026057 
L 378.450734 73.561554 
L 378.763805 70.169179 
L 379.389947 67.057557 
L 379.703017 71.905867 
L 380.016088 72.912781 
L 380.329159 66.232991 
L 380.64223 70.052245 
L 380.955301 67.418163 
L 381.581443 74.065853 
L 381.894514 73.026264 
L 382.520656 74.024945 
L 382.833727 71.693002 
L 383.146798 73.43594 
L 383.459869 72.391037 
L 383.772939 73.388544 
L 384.08601 73.936155 
L 384.399081 73.631427 
L 384.712152 67.244314 
L 385.338294 72.912565 
L 385.651365 71.145813 
L 385.964436 66.638919 
L 386.277507 74.262203 
L 386.590578 73.80223 
L 386.903649 69.99017 
L 387.21672 70.103149 
L 387.52979 72.976319 
L 388.155932 84.927423 
L 388.469003 82.014462 
L 388.782074 80.826885 
L 389.095145 83.911178 
L 389.408216 78.362764 
L 389.721287 78.856546 
L 390.034358 68.341611 
L 390.347429 72.339121 
L 390.6605 69.675027 
L 390.973571 73.44686 
L 391.286642 71.991454 
L 391.599712 66.594532 
L 391.912783 53.568 
L 392.225854 67.593244 
L 392.538925 67.10427 
L 392.851996 53.772603 
L 393.165067 63.414779 
L 393.478138 57.864438 
L 393.791209 64.557718 
L 394.10428 58.187202 
L 394.417351 66.5604 
L 394.730422 66.575834 
L 395.043493 57.278794 
L 395.356564 69.411942 
L 395.982705 65.472423 
L 396.295776 64.915255 
L 396.608847 55.793357 
L 396.921918 57.695012 
L 397.234989 56.428666 
L 397.54806 55.870468 
L 397.861131 53.956923 
L 398.174202 53.610582 
L 398.487273 67.541913 
L 398.487273 67.541913 
" style="fill:none;stroke:#008000;stroke-linecap:square;stroke-width:1.5;"/>
   </g>
   <g id="patch_3">
    <path d="M 57.6 307.584 
L 57.6 41.472 
" style="fill:none;stroke:#000000;stroke-linecap:square;stroke-linejoin:miter;stroke-width:0.8;"/>
   </g>
   <g id="patch_4">
    <path d="M 414.72 307.584 
L 414.72 41.472 
" style="fill:none;stroke:#000000;stroke-linecap:square;stroke-linejoin:miter;stroke-width:0.8;"/>
   </g>
   <g id="patch_5">
    <path d="M 57.6 307.584 
L 414.72 307.584 
" style="fill:none;stroke:#000000;stroke-linecap:square;stroke-linejoin:miter;stroke-width:0.8;"/>
   </g>
   <g id="patch_6">
    <path d="M 57.6 41.472 
L 414.72 41.472 
" style="fill:none;stroke:#000000;stroke-linecap:square;stroke-linejoin:miter;stroke-width:0.8;"/>
   </g>
  </g>
 </g>
 <defs>
  <clipPath id="p3d70b28ed0">
   <rect height="266.112" width="357.12" x="57.6" y="41.472"/>
  </clipPath>
 </defs>
</svg>
